<svg xmlns="http://www.w3.org/2000/svg" width="813" height="642"><rect width="813" height="642" x="0" y="0" fill="#ffffff" id="background"/><g transform="translate(20,20)" id="viz"><g id="nodes"><g transform="translate(387.5,302)"><path id="p_991.5" d="M-5.5292802981502995e-14,301A301,301,0,1,1,5.5292802981502995e-14,-301A301,301,0,1,1,-5.5292802981502995e-14,301Z" fill="none" stroke="#ccc"/><text fill="black" text-anchor="middle" font-family="'Arial', sans-serif" font-size="8" dominant-baseline="middle"><textPath href="#p_991.5" startOffset="50%"/></text></g><g transform="translate(255.4166294148061,302)" id="America"><path id="p_722.6878252745211" d="M-3.017612913025619e-14,164.27119585971502A164.27119585971502,164.27119585971502,0,1,1,3.017612913025619e-14,-164.27119585971502A164.27119585971502,164.27119585971502,0,1,1,-3.017612913025619e-14,164.27119585971502Z" fill="none" stroke="#ccc"/><text fill="black" text-anchor="middle" font-family="'Arial', sans-serif" font-size="8" dominant-baseline="middle"><textPath href="#p_722.6878252745211" startOffset="50%">America</textPath></text></g><g transform="translate(554.0939126372606,302)" id="Europa"><path id="p_986.854566444909" d="M-2.3836645401120656e-14,129.76065380764837A129.76065380764837,129.76065380764837,0,1,1,2.3836645401120656e-14,-129.76065380764837A129.76065380764837,129.76065380764837,0,1,1,-2.3836645401120656e-14,129.76065380764837Z" fill="none" stroke="#ccc"/><text fill="black" text-anchor="middle" font-family="'Arial', sans-serif" font-size="8" dominant-baseline="middle"><textPath href="#p_986.854566444909" startOffset="50%">Europa</textPath></text></g><g transform="translate(429.69855232032717,456.84158347097576)" id="Asia"><path id="p_951.7545953016875" d="M-1.1796004844755469e-14,64.21445951038459A64.21445951038459,64.21445951038459,0,1,1,1.1796004844755469e-14,-64.21445951038459A64.21445951038459,64.21445951038459,0,1,1,-1.1796004844755469e-14,64.21445951038459Z" fill="none" stroke="#ccc"/><text fill="black" text-anchor="middle" font-family="'Arial', sans-serif" font-size="8" dominant-baseline="middle"><textPath href="#p_951.7545953016875" startOffset="50%">Asia</textPath></text></g><g transform="translate(198.3514260984794,312.8244312168601)" id="Estados Unidos"><path id="p_581.1104371699162" d="M-1.2663076885421249e-14,68.93457985457673A68.93457985457673,68.93457985457673,0,1,1,1.2663076885421249e-14,-68.93457985457673A68.93457985457673,68.93457985457673,0,1,1,-1.2663076885421249e-14,68.93457985457673Z" fill="none" stroke="#ccc"/><text fill="black" text-anchor="middle" font-family="'Arial', sans-serif" font-size="8" dominant-baseline="middle"><textPath href="#p_581.1104371699162" startOffset="50%">Estados Unidos</textPath></text></g><g transform="translate(331.5004654634407,312.8244312168601)" id="Cuba"><path id="p_704.8939226355943" d="M-1.0942652544671373e-14,59.569025955293526A59.569025955293526,59.569025955293526,0,1,1,1.0942652544671373e-14,-59.569025955293526A59.569025955293526,59.569025955293526,0,1,1,-1.0942652544671373e-14,59.569025955293526Z" fill="none" stroke="#ccc"/><text fill="black" text-anchor="middle" font-family="'Arial', sans-serif" font-size="8" dominant-baseline="middle"><textPath href="#p_704.8939226355943" startOffset="50%">Cuba</textPath></text></g><g transform="translate(273.25964014481286,410.5875825249123)" id="Costa Rica"><path id="p_734.429193188916" d="M-9.108060223761807e-15,49.581970519190754A49.581970519190754,49.581970519190754,0,1,1,9.108060223761807e-15,-49.581970519190754A49.581970519190754,49.581970519190754,0,1,1,-9.108060223761807e-15,49.581970519190754Z" fill="none" stroke="#ccc"/><text fill="black" text-anchor="middle" font-family="'Arial', sans-serif" font-size="8" dominant-baseline="middle"><textPath href="#p_734.429193188916" startOffset="50%">Costa Rica</textPath></text></g><g transform="translate(271.92331162409255,239.08690503297387)" id="Chile"><path id="p_542.5937530501642" d="M-5.618104492562077e-15,30.583536393097834A30.583536393097834,30.583536393097834,0,1,1,5.618104492562077e-15,-30.583536393097834A30.583536393097834,30.583536393097834,0,1,1,-5.618104492562077e-15,30.583536393097834Z" fill="none" stroke="#ccc"/><text fill="black" text-anchor="middle" font-family="'Arial', sans-serif" font-size="8" dominant-baseline="middle"><textPath href="#p_542.5937530501642" startOffset="50%">Chile</textPath></text></g><g transform="translate(206.22915518851434,196.38871329755693)" id="Mexico"><path id="p_446.73976175748356" d="M-7.921363285201324e-15,43.121893271412276A43.121893271412276,43.121893271412276,0,1,1,7.921363285201324e-15,-43.121893271412276A43.121893271412276,43.121893271412276,0,1,1,-7.921363285201324e-15,43.121893271412276Z" fill="none" stroke="#ccc"/><text fill="black" text-anchor="middle" font-family="'Arial', sans-serif" font-size="8" dominant-baseline="middle"><textPath href="#p_446.73976175748356" startOffset="50%">Mexico</textPath></text></g><g transform="translate(338.77437991895295,211.9530037249567)" id="Brasil"><path id="p_588.6462752881291" d="M-6.781890372024187e-15,36.9188916442194A36.9188916442194,36.9188916442194,0,1,1,6.781890372024187e-15,-36.9188916442194A36.9188916442194,36.9188916442194,0,1,1,-6.781890372024187e-15,36.9188916442194Z" fill="none" stroke="#ccc"/><text fill="black" text-anchor="middle" font-family="'Arial', sans-serif" font-size="8" dominant-baseline="middle"><textPath href="#p_588.6462752881291" startOffset="50%">Brasil</textPath></text></g><g transform="translate(199.55297665591925,406.01750328446064)" id="Republica Dominicana"><path id="p_626.1912841512624" d="M-3.604283261033118e-15,19.620804210882465A19.620804210882465,19.620804210882465,0,1,1,3.604283261033118e-15,-19.620804210882465A19.620804210882465,19.620804210882465,0,1,1,-3.604283261033118e-15,19.620804210882465Z" fill="none" stroke="#ccc"/><text fill="black" text-anchor="middle" font-family="'Arial', sans-serif" font-size="8" dominant-baseline="middle"><textPath href="#p_626.1912841512624" startOffset="50%">Republica Dominicana</textPath></text></g><g transform="translate(345.54494590807053,395.47492433247805)" id="Bahamas"><path id="p_761.6406744514311" d="M-3.604283261033118e-15,19.620804210882465A19.620804210882465,19.620804210882465,0,1,1,3.604283261033118e-15,-19.620804210882465A19.620804210882465,19.620804210882465,0,1,1,-3.604283261033118e-15,19.620804210882465Z" fill="none" stroke="#ccc"/><text fill="black" text-anchor="middle" font-family="'Arial', sans-serif" font-size="8" dominant-baseline="middle"><textPath href="#p_761.6406744514311" startOffset="50%">Bahamas</textPath></text></g><g transform="translate(497.55421678215873,302)" id="Italia"><path id="p_869.1297411796143" d="M-1.259711946797926e-14,68.57552439745547A68.57552439745547,68.57552439745547,0,1,1,1.259711946797926e-14,-68.57552439745547A68.57552439745547,68.57552439745547,0,1,1,-1.259711946797926e-14,68.57552439745547Z" fill="none" stroke="#ccc"/><text fill="black" text-anchor="middle" font-family="'Arial', sans-serif" font-size="8" dominant-baseline="middle"><textPath href="#p_869.1297411796143" startOffset="50%">Italia</textPath></text></g><g transform="translate(624.9921538122616,302)" id="Grecia"><path id="p_982.2091328898179" d="M-9.959497483015257e-15,54.21697907755633A54.21697907755633,54.21697907755633,0,1,1,9.959497483015257e-15,-54.21697907755633A54.21697907755633,54.21697907755633,0,1,1,-9.959497483015257e-15,54.21697907755633Z" fill="none" stroke="#ccc"/><text fill="black" text-anchor="middle" font-family="'Arial', sans-serif" font-size="8" dominant-baseline="middle"><textPath href="#p_982.2091328898179" startOffset="50%">Grecia</textPath></text></g><g transform="translate(570.9248539165833,358.88886014062257)" id="Turquia"><path id="p_950.4345182680884" d="M-3.604283261033118e-15,19.620804210882465A19.620804210882465,19.620804210882465,0,1,1,3.604283261033118e-15,-19.620804210882465A19.620804210882465,19.620804210882465,0,1,1,-3.604283261033118e-15,19.620804210882465Z" fill="none" stroke="#ccc"/><text fill="black" text-anchor="middle" font-family="'Arial', sans-serif" font-size="8" dominant-baseline="middle"><textPath href="#p_950.4345182680884" startOffset="50%">Turquia</textPath></text></g><g transform="translate(570.9248539165833,245.11113985937743)" id="Suiza"><path id="p_836.6567979868432" d="M-3.604283261033118e-15,19.620804210882465A19.620804210882465,19.620804210882465,0,1,1,3.604283261033118e-15,-19.620804210882465A19.620804210882465,19.620804210882465,0,1,1,-3.604283261033118e-15,19.620804210882465Z" fill="none" stroke="#ccc"/><text fill="black" text-anchor="middle" font-family="'Arial', sans-serif" font-size="8" dominant-baseline="middle"><textPath href="#p_836.6567979868432" startOffset="50%">Suiza</textPath></text></g><g transform="translate(536.5975226591931,217.7669122743144)" id="Inglaterra"><path id="p_774.98523914439" d="M-3.604283261033118e-15,19.620804210882465A19.620804210882465,19.620804210882465,0,1,1,3.604283261033118e-15,-19.620804210882465A19.620804210882465,19.620804210882465,0,1,1,-3.604283261033118e-15,19.620804210882465Z" fill="none" stroke="#ccc"/><text fill="black" text-anchor="middle" font-family="'Arial', sans-serif" font-size="8" dominant-baseline="middle"><textPath href="#p_774.98523914439" startOffset="50%">Inglaterra</textPath></text></g><g transform="translate(536.5975226591931,386.2330877256856)" id="Francia"><path id="p_943.4514145957613" d="M-3.604283261033118e-15,19.620804210882465A19.620804210882465,19.620804210882465,0,1,1,3.604283261033118e-15,-19.620804210882465A19.620804210882465,19.620804210882465,0,1,1,-3.604283261033118e-15,19.620804210882465Z" fill="none" stroke="#ccc"/><text fill="black" text-anchor="middle" font-family="'Arial', sans-serif" font-size="8" dominant-baseline="middle"><textPath href="#p_943.4514145957613" startOffset="50%">Francia</textPath></text></g><g transform="translate(609.9210808050101,224.97741834683399)" id="España"><path id="p_855.5193033627266" d="M-3.604283261033118e-15,19.620804210882465A19.620804210882465,19.620804210882465,0,1,1,3.604283261033118e-15,-19.620804210882465A19.620804210882465,19.620804210882465,0,1,1,-3.604283261033118e-15,19.620804210882465Z" fill="none" stroke="#ccc"/><text fill="black" text-anchor="middle" font-family="'Arial', sans-serif" font-size="8" dominant-baseline="middle"><textPath href="#p_855.5193033627266" startOffset="50%">España</textPath></text></g><g transform="translate(429.69855232032717,456.84158347097576)" id="Filipinas"><path id="p_947.1091617465964" d="M-1.0942652544671373e-14,59.569025955293526A59.569025955293526,59.569025955293526,0,1,1,1.0942652544671373e-14,-59.569025955293526A59.569025955293526,59.569025955293526,0,1,1,-1.0942652544671373e-14,59.569025955293526Z" fill="none" stroke="#ccc"/><text fill="black" text-anchor="middle" font-family="'Arial', sans-serif" font-size="8" dominant-baseline="middle"><textPath href="#p_947.1091617465964" startOffset="50%">Filipinas</textPath></text></g><g transform="translate(174.75839101287872,320.02726959609674)" id="Miami"><path id="p_535.4067671552139" d="M-7.278279196579048e-15,39.621106546238316A39.621106546238316,39.621106546238316,0,1,1,7.278279196579048e-15,-39.621106546238316A39.621106546238316,39.621106546238316,0,1,1,-7.278279196579048e-15,39.621106546238316Z" fill="rgb(254, 240, 165)" stroke="none"/></g><g transform="translate(240.20330339719237,320.02726959609674)" id="New York"><path id="p_582.4089452762734" d="M-3.890403874126158e-15,21.17837228298428A21.17837228298428,21.17837228298428,0,1,1,3.890403874126158e-15,-21.17837228298428A21.17837228298428,21.17837228298428,0,1,1,-3.890403874126158e-15,21.17837228298428Z" fill="rgb(236, 247, 167)" stroke="none"/></g><g transform="translate(221.57690998790213,356.32644687520377)" id="Chicago"><path id="p_593.8787275188973" d="M-2.750930960949022e-15,14.975370655791409A14.975370655791409,14.975370655791409,0,1,1,2.750930960949022e-15,-14.975370655791409A14.975370655791409,14.975370655791409,0,1,1,-2.750930960949022e-15,14.975370655791409Z" fill="rgb(236, 102, 73)" stroke="none"/></g><g transform="translate(221.57690998790213,283.7280923169898)" id="Orlando"><path id="p_521.2803729606833" d="M-2.750930960949022e-15,14.975370655791409A14.975370655791409,14.975370655791409,0,1,1,2.750930960949022e-15,-14.975370655791409A14.975370655791409,14.975370655791409,0,1,1,-2.750930960949022e-15,14.975370655791409Z" fill="rgb(228, 244, 162)" stroke="none"/></g><g transform="translate(193.31929112351102,263.76807499434483)" id="Naples"><path id="p_473.0627367736472" d="M-2.750930960949022e-15,14.975370655791409A14.975370655791409,14.975370655791409,0,1,1,2.750930960949022e-15,-14.975370655791409A14.975370655791409,14.975370655791409,0,1,1,-2.750930960949022e-15,14.975370655791409Z" fill="rgb(247, 250, 175)" stroke="none"/></g><g transform="translate(314.2023780301038,322.81148665296286)" id="Habana"><path id="p_652.9892353388581" d="M-2.750930960949022e-15,14.975370655791409A14.975370655791409,14.975370655791409,0,1,1,2.750930960949022e-15,-14.975370655791409A14.975370655791409,14.975370655791409,0,1,1,-2.750930960949022e-15,14.975370655791409Z" fill="rgb(252, 182, 106)" stroke="none"/></g><g transform="translate(348.79855289677766,322.81148665296286)" id="Viñales"><path id="p_687.585410205532" d="M-2.750930960949022e-15,14.975370655791409A14.975370655791409,14.975370655791409,0,1,1,2.750930960949022e-15,-14.975370655791409A14.975370655791409,14.975370655791409,0,1,1,-2.750930960949022e-15,14.975370655791409Z" fill="rgb(84, 92, 168)" stroke="none"/></g><g transform="translate(331.5004654634407,352.77265296127115)" id="Cienfuegos"><path id="p_700.2484890805032" d="M-2.750930960949022e-15,14.975370655791409A14.975370655791409,14.975370655791409,0,1,1,2.750930960949022e-15,-14.975370655791409A14.975370655791409,14.975370655791409,0,1,1,-2.750930960949022e-15,14.975370655791409Z" fill="rgb(241, 115, 74)" stroke="none"/></g><g transform="translate(331.5004654634407,292.85032034465456)" id="Trinidad"><path id="p_640.3261564638866" d="M-2.750930960949022e-15,14.975370655791409A14.975370655791409,14.975370655791409,0,1,1,2.750930960949022e-15,-14.975370655791409A14.975370655791409,14.975370655791409,0,1,1,-2.750930960949022e-15,14.975370655791409Z" fill="rgb(66, 131, 180)" stroke="none"/></g><g transform="translate(296.9042905967668,292.85032034465456)" id="Cayo Coco"><path id="p_605.7299815972127" d="M-2.750930960949022e-15,14.975370655791409A14.975370655791409,14.975370655791409,0,1,1,2.750930960949022e-15,-14.975370655791409A14.975370655791409,14.975370655791409,0,1,1,-2.750930960949022e-15,14.975370655791409Z" fill="rgb(215, 67, 75)" stroke="none"/></g><g transform="translate(366.0966403301146,292.85032034465456)" id="Cayo Guillermo"><path id="p_674.9223313305605" d="M-2.750930960949022e-15,14.975370655791409A14.975370655791409,14.975370655791409,0,1,1,2.750930960949022e-15,-14.975370655791409A14.975370655791409,14.975370655791409,0,1,1,-2.750930960949022e-15,14.975370655791409Z" fill="rgb(223, 79, 74)" stroke="none"/></g><g transform="translate(255.96155271147592,410.5875825249123)" id="San Jose"><path id="p_682.5245058921796" d="M-2.750930960949022e-15,14.975370655791409A14.975370655791409,14.975370655791409,0,1,1,2.750930960949022e-15,-14.975370655791409A14.975370655791409,14.975370655791409,0,1,1,-2.750930960949022e-15,14.975370655791409Z" fill="rgb(122, 199, 166)" stroke="none"/></g><g transform="translate(290.5577275781498,410.5875825249123)" id="El Arenal"><path id="p_717.1206807588535" d="M-2.750930960949022e-15,14.975370655791409A14.975370655791409,14.975370655791409,0,1,1,2.750930960949022e-15,-14.975370655791409A14.975370655791409,14.975370655791409,0,1,1,-2.750930960949022e-15,14.975370655791409Z" fill="rgb(248, 142, 83)" stroke="none"/></g><g transform="translate(273.25964014481286,440.5487488332206)" id="Tamarindo"><path id="p_729.7837596338248" d="M-2.750930960949022e-15,14.975370655791409A14.975370655791409,14.975370655791409,0,1,1,2.750930960949022e-15,-14.975370655791409A14.975370655791409,14.975370655791409,0,1,1,-2.750930960949022e-15,14.975370655791409Z" fill="rgb(73, 157, 178)" stroke="none"/></g><g transform="translate(273.25964014481286,380.626416216604)" id="Manuel Antonio"><path id="p_669.8614270172083" d="M-2.750930960949022e-15,14.975370655791409A14.975370655791409,14.975370655791409,0,1,1,2.750930960949022e-15,-14.975370655791409A14.975370655791409,14.975370655791409,0,1,1,-2.750930960949022e-15,14.975370655791409Z" fill="rgb(254, 233, 156)" stroke="none"/></g><g transform="translate(271.92331162409255,239.08690503297387)" id="Santiago de Chile"><path id="p_537.9483194950732" d="M-4.7647521924779805e-15,25.938102838006774A25.938102838006774,25.938102838006774,0,1,1,4.7647521924779805e-15,-25.938102838006774A25.938102838006774,25.938102838006774,0,1,1,-4.7647521924779805e-15,25.938102838006774Z" fill="rgb(108, 191, 168)" stroke="none"/></g><g transform="translate(188.9310677551774,196.38871329755693)" id="Tulum"><path id="p_407.49815333571865" d="M-3.890403874126158e-15,21.17837228298428A21.17837228298428,21.17837228298428,0,1,1,3.890403874126158e-15,-21.17837228298428A21.17837228298428,21.17837228298428,0,1,1,-3.890403874126158e-15,21.17837228298428Z" fill="rgb(69, 118, 178)" stroke="none"/></g><g transform="translate(229.73024424904415,196.38871329755693)" id="Cancun"><path id="p_442.0943282023925" d="M-2.750930960949022e-15,14.975370655791409A14.975370655791409,14.975370655791409,0,1,1,2.750930960949022e-15,-14.975370655791409A14.975370655791409,14.975370655791409,0,1,1,-2.750930960949022e-15,14.975370655791409Z" fill="rgb(205, 55, 75)" stroke="none"/></g><g transform="translate(321.476292485616,211.9530037249567)" id="Rio Janeiro"><path id="p_549.4046668663641" d="M-2.750930960949022e-15,14.975370655791409A14.975370655791409,14.975370655791409,0,1,1,2.750930960949022e-15,-14.975370655791409A14.975370655791409,14.975370655791409,0,1,1,-2.750930960949022e-15,14.975370655791409Z" fill="rgb(166, 219, 162)" stroke="none"/></g><g transform="translate(356.0724673522899,211.9530037249567)" id="Buzios"><path id="p_584.000841733038" d="M-2.750930960949022e-15,14.975370655791409A14.975370655791409,14.975370655791409,0,1,1,2.750930960949022e-15,-14.975370655791409A14.975370655791409,14.975370655791409,0,1,1,-2.750930960949022e-15,14.975370655791409Z" fill="rgb(194, 42, 74)" stroke="none"/></g><g transform="translate(199.55297665591925,406.01750328446064)" id="Punta Cana"><path id="p_621.5458505961712" d="M-2.750930960949022e-15,14.975370655791409A14.975370655791409,14.975370655791409,0,1,1,2.750930960949022e-15,-14.975370655791409A14.975370655791409,14.975370655791409,0,1,1,-2.750930960949022e-15,14.975370655791409Z" fill="rgb(181, 225, 161)" stroke="none"/></g><g transform="translate(345.54494590807053,395.47492433247805)" id="Nassau"><path id="p_756.99524089634" d="M-2.750930960949022e-15,14.975370655791409A14.975370655791409,14.975370655791409,0,1,1,2.750930960949022e-15,-14.975370655791409A14.975370655791409,14.975370655791409,0,1,1,-2.750930960949022e-15,14.975370655791409Z" fill="rgb(242, 249, 172)" stroke="none"/></g><g transform="translate(476.85082254856405,302)" id="Roma"><path id="p_801.0291948315484" d="M-3.890403874126158e-15,21.17837228298428A21.17837228298428,21.17837228298428,0,1,1,3.890403874126158e-15,-21.17837228298428A21.17837228298428,21.17837228298428,0,1,1,-3.890403874126158e-15,21.17837228298428Z" fill="rgb(137, 207, 165)" stroke="none"/></g><g transform="translate(517.6499990424309,302)" id="Milan"><path id="p_835.6253696982222" d="M-2.750930960949022e-15,14.975370655791409A14.975370655791409,14.975370655791409,0,1,1,2.750930960949022e-15,-14.975370655791409A14.975370655791409,14.975370655791409,0,1,1,-2.750930960949022e-15,14.975370655791409Z" fill="rgb(251, 248, 176)" stroke="none"/></g><g transform="translate(502.98186823364597,333.33275050138195)" id="Florencia"><path id="p_852.2899893908193" d="M-2.750930960949022e-15,14.975370655791409A14.975370655791409,14.975370655791409,0,1,1,2.750930960949022e-15,-14.975370655791409A14.975370655791409,14.975370655791409,0,1,1,-2.750930960949022e-15,14.975370655791409Z" fill="rgb(251, 169, 97)" stroke="none"/></g><g transform="translate(502.98186823364597,270.66724949861805)" id="Venecia"><path id="p_789.6244883880554" d="M-2.750930960949022e-15,14.975370655791409A14.975370655791409,14.975370655791409,0,1,1,2.750930960949022e-15,-14.975370655791409A14.975370655791409,14.975370655791409,0,1,1,-2.750930960949022e-15,14.975370655791409Z" fill="rgb(76, 105, 173)" stroke="none"/></g><g transform="translate(469.5244564041162,261.8640166222979)" id="Sorrento"><path id="p_747.3638436822056" d="M-2.750930960949022e-15,14.975370655791409A14.975370655791409,14.975370655791409,0,1,1,2.750930960949022e-15,-14.975370655791409A14.975370655791409,14.975370655791409,0,1,1,-2.750930960949022e-15,14.975370655791409Z" fill="rgb(82, 169, 175)" stroke="none"/></g><g transform="translate(469.5244564041162,342.1359833777021)" id="Amalfi"><path id="p_827.6358104376096" d="M-2.750930960949022e-15,14.975370655791409A14.975370655791409,14.975370655791409,0,1,1,2.750930960949022e-15,-14.975370655791409A14.975370655791409,14.975370655791409,0,1,1,-2.750930960949022e-15,14.975370655791409Z" fill="rgb(158, 1, 66)" stroke="none"/></g><g transform="translate(537.4508915426748,273.63065084286814)" id="Toscana"><path id="p_827.0569130413343" d="M-2.750930960949022e-15,14.975370655791409A14.975370655791409,14.975370655791409,0,1,1,2.750930960949022e-15,-14.975370655791409A14.975370655791409,14.975370655791409,0,1,1,-2.750930960949022e-15,14.975370655791409Z" fill="rgb(67, 144, 180)" stroke="none"/></g><g transform="translate(624.9921538122616,302)" id="Atenas"><path id="p_942.9675244680529" d="M-2.750930960949022e-15,14.975370655791409A14.975370655791409,14.975370655791409,0,1,1,2.750930960949022e-15,-14.975370655791409A14.975370655791409,14.975370655791409,0,1,1,-2.750930960949022e-15,14.975370655791409Z" fill="rgb(170, 15, 69)" stroke="none"/></g><g transform="translate(659.5883286789355,302)" id="Mikonos"><path id="p_977.5636993347268" d="M-2.750930960949022e-15,14.975370655791409A14.975370655791409,14.975370655791409,0,1,1,2.750930960949022e-15,-14.975370655791409A14.975370655791409,14.975370655791409,0,1,1,-2.750930960949022e-15,14.975370655791409Z" fill="rgb(253, 245, 172)" stroke="none"/></g><g transform="translate(642.2902412455985,331.9611663083083)" id="Paros"><path id="p_990.2267782096982" d="M-2.750930960949022e-15,14.975370655791409A14.975370655791409,14.975370655791409,0,1,1,2.750930960949022e-15,-14.975370655791409A14.975370655791409,14.975370655791409,0,1,1,-2.750930960949022e-15,14.975370655791409Z" fill="rgb(207, 236, 158)" stroke="none"/></g><g transform="translate(642.2902412455985,272.0388336916917)" id="Rodas"><path id="p_930.3044455930816" d="M-2.750930960949022e-15,14.975370655791409A14.975370655791409,14.975370655791409,0,1,1,2.750930960949022e-15,-14.975370655791409A14.975370655791409,14.975370655791409,0,1,1,-2.750930960949022e-15,14.975370655791409Z" fill="rgb(152, 213, 164)" stroke="none"/></g><g transform="translate(607.6940663789246,272.0388336916917)" id="Santorini"><path id="p_895.7082707264077" d="M-2.750930960949022e-15,14.975370655791409A14.975370655791409,14.975370655791409,0,1,1,2.750930960949022e-15,-14.975370655791409A14.975370655791409,14.975370655791409,0,1,1,-2.750930960949022e-15,14.975370655791409Z" fill="rgb(94, 181, 171)" stroke="none"/></g><g transform="translate(570.9248539165833,358.88886014062257)" id="Kusadasi"><path id="p_945.7890847129972" d="M-2.750930960949022e-15,14.975370655791409A14.975370655791409,14.975370655791409,0,1,1,2.750930960949022e-15,-14.975370655791409A14.975370655791409,14.975370655791409,0,1,1,-2.750930960949022e-15,14.975370655791409Z" fill="rgb(253, 194, 115)" stroke="none"/></g><g transform="translate(570.9248539165833,245.11113985937743)" id="Zurich"><path id="p_832.0113644317521" d="M-2.750930960949022e-15,14.975370655791409A14.975370655791409,14.975370655791409,0,1,1,2.750930960949022e-15,-14.975370655791409A14.975370655791409,14.975370655791409,0,1,1,-2.750930960949022e-15,14.975370655791409Z" fill="rgb(94, 79, 162)" stroke="none"/></g><g transform="translate(536.5975226591931,217.7669122743144)" id="Londres"><path id="p_770.3398055892989" d="M-2.750930960949022e-15,14.975370655791409A14.975370655791409,14.975370655791409,0,1,1,2.750930960949022e-15,-14.975370655791409A14.975370655791409,14.975370655791409,0,1,1,-2.750930960949022e-15,14.975370655791409Z" fill="rgb(254, 205, 124)" stroke="none"/></g><g transform="translate(536.5975226591931,386.2330877256856)" id="Paris"><path id="p_938.8059810406702" d="M-2.750930960949022e-15,14.975370655791409A14.975370655791409,14.975370655791409,0,1,1,2.750930960949022e-15,-14.975370655791409A14.975370655791409,14.975370655791409,0,1,1,-2.750930960949022e-15,14.975370655791409Z" fill="rgb(218, 240, 159)" stroke="none"/></g><g transform="translate(609.9210808050101,224.97741834683399)" id="Madrid"><path id="p_850.8738698076355" d="M-2.750930960949022e-15,14.975370655791409A14.975370655791409,14.975370655791409,0,1,1,2.750930960949022e-15,-14.975370655791409A14.975370655791409,14.975370655791409,0,1,1,-2.750930960949022e-15,14.975370655791409Z" fill="rgb(254, 215, 134)" stroke="none"/></g><g transform="translate(412.4004648869902,466.8286389070785)" id="Manila"><path id="p_895.2044744498602" d="M-2.750930960949022e-15,14.975370655791409A14.975370655791409,14.975370655791409,0,1,1,2.750930960949022e-15,-14.975370655791409A14.975370655791409,14.975370655791409,0,1,1,-2.750930960949022e-15,14.975370655791409Z" fill="rgb(254, 224, 145)" stroke="none"/></g><g transform="translate(446.9966397536641,466.8286389070785)" id="Bohol"><path id="p_929.8006493165341" d="M-2.750930960949022e-15,14.975370655791409A14.975370655791409,14.975370655791409,0,1,1,2.750930960949022e-15,-14.975370655791409A14.975370655791409,14.975370655791409,0,1,1,-2.750930960949022e-15,14.975370655791409Z" fill="rgb(183, 29, 72)" stroke="none"/></g><g transform="translate(429.69855232032717,496.7898052153868)" id="Cebu"><path id="p_942.4637281915053" d="M-2.750930960949022e-15,14.975370655791409A14.975370655791409,14.975370655791409,0,1,1,2.750930960949022e-15,-14.975370655791409A14.975370655791409,14.975370655791409,0,1,1,-2.750930960949022e-15,14.975370655791409Z" fill="rgb(230, 90, 73)" stroke="none"/></g><g transform="translate(429.69855232032717,436.86747259877023)" id="Port Barton"><path id="p_882.5413955748887" d="M-2.750930960949022e-15,14.975370655791409A14.975370655791409,14.975370655791409,0,1,1,2.750930960949022e-15,-14.975370655791409A14.975370655791409,14.975370655791409,0,1,1,-2.750930960949022e-15,14.975370655791409Z" fill="rgb(194, 231, 159)" stroke="none"/></g><g transform="translate(395.1023774536533,436.86747259877023)" id="El Nido"><path id="p_847.9452207082148" d="M-2.750930960949022e-15,14.975370655791409A14.975370655791409,14.975370655791409,0,1,1,2.750930960949022e-15,-14.975370655791409A14.975370655791409,14.975370655791409,0,1,1,-2.750930960949022e-15,14.975370655791409Z" fill="rgb(250, 155, 90)" stroke="none"/></g><g transform="translate(464.29472718700106,436.86747259877023)" id="Coron"><path id="p_917.1375704415626" d="M-2.750930960949022e-15,14.975370655791409A14.975370655791409,14.975370655791409,0,1,1,2.750930960949022e-15,-14.975370655791409A14.975370655791409,14.975370655791409,0,1,1,-2.750930960949022e-15,14.975370655791409Z" fill="rgb(245, 128, 78)" stroke="none"/></g></g><g id="labels"><g transform="translate(174.75839101287872,320.02726959609674)"><text text-anchor="middle" dominant-baseline="text-before-edge" transform="translate(0,0)"/></g><g transform="translate(240.20330339719237,320.02726959609674)"><text text-anchor="middle" dominant-baseline="text-before-edge" transform="translate(0,0)"/></g><g transform="translate(221.57690998790213,356.32644687520377)"><text text-anchor="middle" dominant-baseline="text-before-edge" transform="translate(0,0)"/></g><g transform="translate(221.57690998790213,283.7280923169898)"><text text-anchor="middle" dominant-baseline="text-before-edge" transform="translate(0,0)"/></g><g transform="translate(193.31929112351102,263.76807499434483)"><text text-anchor="middle" dominant-baseline="text-before-edge" transform="translate(0,0)"/></g><g transform="translate(314.2023780301038,322.81148665296286)"><text text-anchor="middle" dominant-baseline="text-before-edge" transform="translate(0,0)"/></g><g transform="translate(348.79855289677766,322.81148665296286)"><text text-anchor="middle" dominant-baseline="text-before-edge" transform="translate(0,0)"/></g><g transform="translate(331.5004654634407,352.77265296127115)"><text text-anchor="middle" dominant-baseline="text-before-edge" transform="translate(0,0)"/></g><g transform="translate(331.5004654634407,292.85032034465456)"><text text-anchor="middle" dominant-baseline="text-before-edge" transform="translate(0,0)"/></g><g transform="translate(296.9042905967668,292.85032034465456)"><text text-anchor="middle" dominant-baseline="text-before-edge" transform="translate(0,0)"/></g><g transform="translate(366.0966403301146,292.85032034465456)"><text text-anchor="middle" dominant-baseline="text-before-edge" transform="translate(0,0)"/></g><g transform="translate(255.96155271147592,410.5875825249123)"><text text-anchor="middle" dominant-baseline="text-before-edge" transform="translate(0,0)"/></g><g transform="translate(290.5577275781498,410.5875825249123)"><text text-anchor="middle" dominant-baseline="text-before-edge" transform="translate(0,0)"/></g><g transform="translate(273.25964014481286,440.5487488332206)"><text text-anchor="middle" dominant-baseline="text-before-edge" transform="translate(0,0)"/></g><g transform="translate(273.25964014481286,380.626416216604)"><text text-anchor="middle" dominant-baseline="text-before-edge" transform="translate(0,0)"/></g><g transform="translate(271.92331162409255,239.08690503297387)"><text text-anchor="middle" dominant-baseline="text-before-edge" transform="translate(0,0)"/></g><g transform="translate(188.9310677551774,196.38871329755693)"><text text-anchor="middle" dominant-baseline="text-before-edge" transform="translate(0,0)"/></g><g transform="translate(229.73024424904415,196.38871329755693)"><text text-anchor="middle" dominant-baseline="text-before-edge" transform="translate(0,0)"/></g><g transform="translate(321.476292485616,211.9530037249567)"><text text-anchor="middle" dominant-baseline="text-before-edge" transform="translate(0,0)"/></g><g transform="translate(356.0724673522899,211.9530037249567)"><text text-anchor="middle" dominant-baseline="text-before-edge" transform="translate(0,0)"/></g><g transform="translate(199.55297665591925,406.01750328446064)"><text text-anchor="middle" dominant-baseline="text-before-edge" transform="translate(0,0)"/></g><g transform="translate(345.54494590807053,395.47492433247805)"><text text-anchor="middle" dominant-baseline="text-before-edge" transform="translate(0,0)"/></g><g transform="translate(476.85082254856405,302)"><text text-anchor="middle" dominant-baseline="text-before-edge" transform="translate(0,0)"/></g><g transform="translate(517.6499990424309,302)"><text text-anchor="middle" dominant-baseline="text-before-edge" transform="translate(0,0)"/></g><g transform="translate(502.98186823364597,333.33275050138195)"><text text-anchor="middle" dominant-baseline="text-before-edge" transform="translate(0,0)"/></g><g transform="translate(502.98186823364597,270.66724949861805)"><text text-anchor="middle" dominant-baseline="text-before-edge" transform="translate(0,0)"/></g><g transform="translate(469.5244564041162,261.8640166222979)"><text text-anchor="middle" dominant-baseline="text-before-edge" transform="translate(0,0)"/></g><g transform="translate(469.5244564041162,342.1359833777021)"><text text-anchor="middle" dominant-baseline="text-before-edge" transform="translate(0,0)"/></g><g transform="translate(537.4508915426748,273.63065084286814)"><text text-anchor="middle" dominant-baseline="text-before-edge" transform="translate(0,0)"/></g><g transform="translate(624.9921538122616,302)"><text text-anchor="middle" dominant-baseline="text-before-edge" transform="translate(0,0)"/></g><g transform="translate(659.5883286789355,302)"><text text-anchor="middle" dominant-baseline="text-before-edge" transform="translate(0,0)"/></g><g transform="translate(642.2902412455985,331.9611663083083)"><text text-anchor="middle" dominant-baseline="text-before-edge" transform="translate(0,0)"/></g><g transform="translate(642.2902412455985,272.0388336916917)"><text text-anchor="middle" dominant-baseline="text-before-edge" transform="translate(0,0)"/></g><g transform="translate(607.6940663789246,272.0388336916917)"><text text-anchor="middle" dominant-baseline="text-before-edge" transform="translate(0,0)"/></g><g transform="translate(570.9248539165833,358.88886014062257)"><text text-anchor="middle" dominant-baseline="text-before-edge" transform="translate(0,0)"/></g><g transform="translate(570.9248539165833,245.11113985937743)"><text text-anchor="middle" dominant-baseline="text-before-edge" transform="translate(0,0)"/></g><g transform="translate(536.5975226591931,217.7669122743144)"><text text-anchor="middle" dominant-baseline="text-before-edge" transform="translate(0,0)"/></g><g transform="translate(536.5975226591931,386.2330877256856)"><text text-anchor="middle" dominant-baseline="text-before-edge" transform="translate(0,0)"/></g><g transform="translate(609.9210808050101,224.97741834683399)"><text text-anchor="middle" dominant-baseline="text-before-edge" transform="translate(0,0)"/></g><g transform="translate(412.4004648869902,466.8286389070785)"><text text-anchor="middle" dominant-baseline="text-before-edge" transform="translate(0,0)"/></g><g transform="translate(446.9966397536641,466.8286389070785)"><text text-anchor="middle" dominant-baseline="text-before-edge" transform="translate(0,0)"/></g><g transform="translate(429.69855232032717,496.7898052153868)"><text text-anchor="middle" dominant-baseline="text-before-edge" transform="translate(0,0)"/></g><g transform="translate(429.69855232032717,436.86747259877023)"><text text-anchor="middle" dominant-baseline="text-before-edge" transform="translate(0,0)"/></g><g transform="translate(395.1023774536533,436.86747259877023)"><text text-anchor="middle" dominant-baseline="text-before-edge" transform="translate(0,0)"/></g><g transform="translate(464.29472718700106,436.86747259877023)"><text text-anchor="middle" dominant-baseline="text-before-edge" transform="translate(0,0)"/></g></g></g></svg>