<svg xmlns="http://www.w3.org/2000/svg" width="805" height="600"><rect width="805" height="600" x="0" y="0" fill="#FFFFFF" id="background"/><g id="viz"><g transform="translate(0,0)"><g transform="translate(10,20)"><g><path fill="#1f77b4" d="M0,260C31.041666666666664,260,31.041666666666664,260,62.08333333333333,260C93.125,260,93.125,260,124.16666666666666,260C155.20833333333331,260,155.20833333333331,260,186.25,260C217.29166666666666,260,217.29166666666666,260,248.33333333333331,260L248.33333333333331,260C217.29166666666666,260,217.29166666666666,260,186.25,260C155.20833333333331,260,155.20833333333331,260,124.16666666666666,260C93.125,260,93.125,260,62.08333333333333,260C31.041666666666664,260,31.041666666666664,260,0,260Z"><title>Animation</title></path><path fill="#ff7f0e" d="M0,227.5C31.041666666666664,227.5,31.041666666666664,221.5,62.08333333333333,221.5C93.125,221.5,93.125,227.5,124.16666666666666,227.5C155.20833333333331,227.5,155.20833333333331,226.5,186.25,226.5C217.29166666666666,226.5,217.29166666666666,227.5,248.33333333333331,227.5L248.33333333333331,260C217.29166666666666,260,217.29166666666666,259,186.25,259C155.20833333333331,259,155.20833333333331,260,124.16666666666666,260C93.125,260,93.125,254,62.08333333333333,254C31.041666666666664,254,31.041666666666664,260,0,260Z"><title>Comedy</title></path><path fill="#2ca02c" d="M0,260C31.041666666666664,260,31.041666666666664,260,62.08333333333333,260C93.125,260,93.125,194,124.16666666666666,194C155.20833333333331,194,155.20833333333331,193,186.25,193C217.29166666666666,193,217.29166666666666,260,248.33333333333331,260L248.33333333333331,260C217.29166666666666,260,217.29166666666666,225.5,186.25,225.5C155.20833333333331,225.5,155.20833333333331,226.5,124.16666666666666,226.5C93.125,226.5,93.125,260,62.08333333333333,260C31.041666666666664,260,31.041666666666664,260,0,260Z"><title>Docu-Series</title></path><path fill="#d62728" d="M0,194C31.041666666666664,194,31.041666666666664,259,62.08333333333333,259C93.125,259,93.125,160.5,124.16666666666666,160.5C155.20833333333331,160.5,155.20833333333331,159.5,186.25,159.5C217.29166666666666,159.5,217.29166666666666,194,248.33333333333331,194L248.33333333333331,226.5C217.29166666666666,226.5,217.29166666666666,192,186.25,192C155.20833333333331,192,155.20833333333331,193,124.16666666666666,193C93.125,193,93.125,259,62.08333333333333,259C31.041666666666664,259,31.041666666666664,226.5,0,226.5Z"><title>Drama</title></path><path fill="#9467bd" d="M0,260C31.041666666666664,260,31.041666666666664,258,62.08333333333333,258C93.125,258,93.125,127,124.16666666666666,127C155.20833333333331,127,155.20833333333331,126,186.25,126C217.29166666666666,126,217.29166666666666,260,248.33333333333331,260L248.33333333333331,260C217.29166666666666,260,217.29166666666666,158.5,186.25,158.5C155.20833333333331,158.5,155.20833333333331,159.5,124.16666666666666,159.5C93.125,159.5,93.125,258,62.08333333333333,258C31.041666666666664,258,31.041666666666664,260,0,260Z"><title>Family Animation</title></path><path fill="#8c564b" d="M0,260C31.041666666666664,260,31.041666666666664,257,62.08333333333333,257C93.125,257,93.125,93.5,124.16666666666666,93.5C155.20833333333331,93.5,155.20833333333331,260,186.25,260C217.29166666666666,260,217.29166666666666,260,248.33333333333331,260L248.33333333333331,260C217.29166666666666,260,217.29166666666666,260,186.25,260C155.20833333333331,260,155.20833333333331,126,124.16666666666666,126C93.125,126,93.125,257,62.08333333333333,257C31.041666666666664,257,31.041666666666664,260,0,260Z"><title>Family Live Action</title></path><path fill="#e377c2" d="M0,260C31.041666666666664,260,31.041666666666664,256,62.08333333333333,256C93.125,256,93.125,60,124.16666666666666,60C155.20833333333331,60,155.20833333333331,92.5,186.25,92.5C217.29166666666666,92.5,217.29166666666666,160.5,248.33333333333331,160.5L248.33333333333331,193C217.29166666666666,193,217.29166666666666,125,186.25,125C155.20833333333331,125,155.20833333333331,92.5,124.16666666666666,92.5C93.125,92.5,93.125,256,62.08333333333333,256C31.041666666666664,256,31.041666666666664,260,0,260Z"><title>Foreign Language</title></path><path fill="#7f7f7f" d="M0,260C31.041666666666664,260,31.041666666666664,255,62.08333333333333,255C93.125,255,93.125,26.5,124.16666666666666,26.5C155.20833333333331,26.5,155.20833333333331,59,186.25,59C217.29166666666666,59,217.29166666666666,260,248.33333333333331,260L248.33333333333331,260C217.29166666666666,260,217.29166666666666,91.5,186.25,91.5C155.20833333333331,91.5,155.20833333333331,59,124.16666666666666,59C93.125,59,93.125,255,62.08333333333333,255C31.041666666666664,255,31.041666666666664,260,0,260Z"><title>Marvel</title></path><path fill="#bcbd22" d="M0,260C31.041666666666664,260,31.041666666666664,254,62.08333333333333,254C93.125,254,93.125,260,124.16666666666666,260C155.20833333333331,260,155.20833333333331,260,186.25,260C217.29166666666666,260,217.29166666666666,127,248.33333333333331,127L248.33333333333331,159.5C217.29166666666666,159.5,217.29166666666666,260,186.25,260C155.20833333333331,260,155.20833333333331,260,124.16666666666666,260C93.125,260,93.125,254,62.08333333333333,254C31.041666666666664,254,31.041666666666664,260,0,260Z"><title>Reality</title></path><path fill="#17becf" d="M0,260C31.041666666666664,260,31.041666666666664,254,62.08333333333333,254C93.125,254,93.125,260,124.16666666666666,260C155.20833333333331,260,155.20833333333331,259,186.25,259C217.29166666666666,259,217.29166666666666,260,248.33333333333331,260L248.33333333333331,260C217.29166666666666,260,217.29166666666666,259,186.25,259C155.20833333333331,259,155.20833333333331,260,124.16666666666666,260C93.125,260,93.125,254,62.08333333333333,254C31.041666666666664,254,31.041666666666664,260,0,260Z"><title>Talk Show</title></path></g><g id="xAxis" transform="translate(0,260)" fill="none" font-size="10" font-family="sans-serif" text-anchor="middle"><path class="domain" stroke="currentColor" d="M0,0H248.33333333333331"/><g class="tick" opacity="1" transform="translate(0,0)"><line stroke="currentColor" y2="6"/><text fill="currentColor" y="9" dy="0.71em">2,013.0</text></g><g class="tick" opacity="1" transform="translate(31.041666666666664,0)"><line stroke="currentColor" y2="6"/><text fill="currentColor" y="9" dy="0.71em">2,013.5</text></g><g class="tick" opacity="1" transform="translate(62.08333333333333,0)"><line stroke="currentColor" y2="6"/><text fill="currentColor" y="9" dy="0.71em">2,014.0</text></g><g class="tick" opacity="1" transform="translate(93.125,0)"><line stroke="currentColor" y2="6"/><text fill="currentColor" y="9" dy="0.71em">2,014.5</text></g><g class="tick" opacity="1" transform="translate(124.16666666666666,0)"><line stroke="currentColor" y2="6"/><text fill="currentColor" y="9" dy="0.71em">2,015.0</text></g><g class="tick" opacity="1" transform="translate(155.20833333333331,0)"><line stroke="currentColor" y2="6"/><text fill="currentColor" y="9" dy="0.71em">2,015.5</text></g><g class="tick" opacity="1" transform="translate(186.25,0)"><line stroke="currentColor" y2="6"/><text fill="currentColor" y="9" dy="0.71em">2,016.0</text></g><g class="tick" opacity="1" transform="translate(217.29166666666666,0)"><line stroke="currentColor" y2="6"/><text fill="currentColor" y="9" dy="0.71em">2,016.5</text></g><g class="tick" opacity="1" transform="translate(248.33333333333331,0)"><line stroke="currentColor" y2="6"/><text fill="currentColor" y="9" dy="0.71em">2,017.0</text></g></g><text y="256" x="248.33333333333331" text-anchor="end" style="font-family: Arial, sans-serif; font-size: 12px; fill: rgb(123, 123, 123); font-weight: bold;">Premiere_Year</text><text x="4" text-anchor="start" dominant-baseline="hanging" style="font-family: Arial, sans-serif; font-size: 12px; fill: rgb(123, 123, 123); font-weight: bold;"/><g id="labels"><text x="0" y="243.75" text-anchor="start" alignment-baseline="middle" style="font-family: Arial, sans-serif; font-size: 10px; fill: black; font-weight: bold;">Comedy</text><text x="124.16666666666666" y="210.25" text-anchor="middle" alignment-baseline="middle" style="font-family: Arial, sans-serif; font-size: 10px; fill: black; font-weight: bold;">Docu-Series</text><text x="0" y="210.25" text-anchor="start" alignment-baseline="middle" style="font-family: Arial, sans-serif; font-size: 10px; fill: black; font-weight: bold;">Drama</text><text x="124.16666666666666" y="143.25" text-anchor="middle" alignment-baseline="middle" style="font-family: Arial, sans-serif; font-size: 10px; fill: black; font-weight: bold;">Family Animation</text><text x="124.16666666666666" y="109.75" text-anchor="middle" alignment-baseline="middle" style="font-family: Arial, sans-serif; font-size: 10px; fill: black; font-weight: bold;">Family Live Action</text><text x="124.16666666666666" y="76.25" text-anchor="middle" alignment-baseline="middle" style="font-family: Arial, sans-serif; font-size: 10px; fill: black; font-weight: bold;">Foreign Language</text><text x="124.16666666666666" y="42.75" text-anchor="middle" alignment-baseline="middle" style="font-family: Arial, sans-serif; font-size: 10px; fill: black; font-weight: bold;">Marvel</text><text x="248.33333333333331" y="143.25" text-anchor="end" alignment-baseline="middle" style="font-family: Arial, sans-serif; font-size: 10px; fill: black; font-weight: bold;">Reality</text></g></g><text x="4" y="4" style="font-family: Arial, sans-serif; font-size: 12px; fill: black; font-weight: bold; dominant-baseline: hanging;">Renewed</text></g><g transform="translate(268.3333333333333,0)"><g transform="translate(10,20)"><g><path fill="#1f77b4" d="M0,260C31.041666666666664,260,31.041666666666664,260,62.08333333333333,260C93.125,260,93.125,260,124.16666666666666,260C155.20833333333331,260,155.20833333333331,260,186.25,260C217.29166666666666,260,217.29166666666666,260,248.33333333333331,260L248.33333333333331,260C217.29166666666666,260,217.29166666666666,260,186.25,260C155.20833333333331,260,155.20833333333331,260,124.16666666666666,260C93.125,260,93.125,260,62.08333333333333,260C31.041666666666664,260,31.041666666666664,260,0,260Z"><title>Animation</title></path><path fill="#ff7f0e" d="M0,260C31.041666666666664,260,31.041666666666664,225.5,62.08333333333333,225.5C93.125,225.5,93.125,225.5,124.16666666666666,225.5C155.20833333333331,225.5,155.20833333333331,223.5,186.25,223.5C217.29166666666666,223.5,217.29166666666666,227.5,248.33333333333331,227.5L248.33333333333331,260C217.29166666666666,260,217.29166666666666,256,186.25,256C155.20833333333331,256,155.20833333333331,258,124.16666666666666,258C93.125,258,93.125,258,62.08333333333333,258C31.041666666666664,258,31.041666666666664,260,0,260Z"><title>Comedy</title></path><path fill="#2ca02c" d="M0,259C31.041666666666664,259,31.041666666666664,260,62.08333333333333,260C93.125,260,93.125,192,124.16666666666666,192C155.20833333333331,192,155.20833333333331,190,186.25,190C217.29166666666666,190,217.29166666666666,194,248.33333333333331,194L248.33333333333331,226.5C217.29166666666666,226.5,217.29166666666666,222.5,186.25,222.5C155.20833333333331,222.5,155.20833333333331,224.5,124.16666666666666,224.5C93.125,224.5,93.125,260,62.08333333333333,260C31.041666666666664,260,31.041666666666664,259,0,259Z"><title>Docu-Series</title></path><path fill="#d62728" d="M0,226.5C31.041666666666664,226.5,31.041666666666664,259,62.08333333333333,259C93.125,259,93.125,260,124.16666666666666,260C155.20833333333331,260,155.20833333333331,260,186.25,260C217.29166666666666,260,217.29166666666666,160.5,248.33333333333331,160.5L248.33333333333331,193C217.29166666666666,193,217.29166666666666,260,186.25,260C155.20833333333331,260,155.20833333333331,260,124.16666666666666,260C93.125,260,93.125,259,62.08333333333333,259C31.041666666666664,259,31.041666666666664,259,0,259Z"><title>Drama</title></path><path fill="#9467bd" d="M0,193C31.041666666666664,193,31.041666666666664,259,62.08333333333333,259C93.125,259,93.125,158.5,124.16666666666666,158.5C155.20833333333331,158.5,155.20833333333331,156.5,186.25,156.5C217.29166666666666,156.5,217.29166666666666,127,248.33333333333331,127L248.33333333333331,159.5C217.29166666666666,159.5,217.29166666666666,189,186.25,189C155.20833333333331,189,155.20833333333331,191,124.16666666666666,191C93.125,191,93.125,259,62.08333333333333,259C31.041666666666664,259,31.041666666666664,225.5,0,225.5Z"><title>Family Animation</title></path><path fill="#8c564b" d="M0,259C31.041666666666664,259,31.041666666666664,258,62.08333333333333,258C93.125,258,93.125,260,124.16666666666666,260C155.20833333333331,260,155.20833333333331,259,186.25,259C217.29166666666666,259,217.29166666666666,93.5,248.33333333333331,93.5L248.33333333333331,126C217.29166666666666,126,217.29166666666666,259,186.25,259C155.20833333333331,259,155.20833333333331,260,124.16666666666666,260C93.125,260,93.125,258,62.08333333333333,258C31.041666666666664,258,31.041666666666664,259,0,259Z"><title>Family Live Action</title></path><path fill="#e377c2" d="M0,259C31.041666666666664,259,31.041666666666664,258,62.08333333333333,258C93.125,258,93.125,260,124.16666666666666,260C155.20833333333331,260,155.20833333333331,123,186.25,123C217.29166666666666,123,217.29166666666666,60,248.33333333333331,60L248.33333333333331,92.5C217.29166666666666,92.5,217.29166666666666,155.5,186.25,155.5C155.20833333333331,155.5,155.20833333333331,260,124.16666666666666,260C93.125,260,93.125,258,62.08333333333333,258C31.041666666666664,258,31.041666666666664,259,0,259Z"><title>Foreign Language</title></path><path fill="#7f7f7f" d="M0,259C31.041666666666664,259,31.041666666666664,258,62.08333333333333,258C93.125,258,93.125,259,124.16666666666666,259C155.20833333333331,259,155.20833333333331,258,186.25,258C217.29166666666666,258,217.29166666666666,26.5,248.33333333333331,26.5L248.33333333333331,59C217.29166666666666,59,217.29166666666666,258,186.25,258C155.20833333333331,258,155.20833333333331,259,124.16666666666666,259C93.125,259,93.125,258,62.08333333333333,258C31.041666666666664,258,31.041666666666664,259,0,259Z"><title>Marvel</title></path><path fill="#bcbd22" d="M0,259C31.041666666666664,259,31.041666666666664,258,62.08333333333333,258C93.125,258,93.125,259,124.16666666666666,259C155.20833333333331,259,155.20833333333331,89.5,186.25,89.5C217.29166666666666,89.5,217.29166666666666,260,248.33333333333331,260L248.33333333333331,260C217.29166666666666,260,217.29166666666666,122,186.25,122C155.20833333333331,122,155.20833333333331,259,124.16666666666666,259C93.125,259,93.125,258,62.08333333333333,258C31.041666666666664,258,31.041666666666664,259,0,259Z"><title>Reality</title></path><path fill="#17becf" d="M0,259C31.041666666666664,259,31.041666666666664,258,62.08333333333333,258C93.125,258,93.125,258,124.16666666666666,258C155.20833333333331,258,155.20833333333331,257,186.25,257C217.29166666666666,257,217.29166666666666,-7,248.33333333333331,-7L248.33333333333331,25.5C217.29166666666666,25.5,217.29166666666666,257,186.25,257C155.20833333333331,257,155.20833333333331,258,124.16666666666666,258C93.125,258,93.125,258,62.08333333333333,258C31.041666666666664,258,31.041666666666664,259,0,259Z"><title>Talk Show</title></path></g><g id="xAxis" transform="translate(0,260)" fill="none" font-size="10" font-family="sans-serif" text-anchor="middle"><path class="domain" stroke="currentColor" d="M0,0H248.33333333333331"/><g class="tick" opacity="1" transform="translate(0,0)"><line stroke="currentColor" y2="6"/><text fill="currentColor" y="9" dy="0.71em">2,013.0</text></g><g class="tick" opacity="1" transform="translate(31.041666666666664,0)"><line stroke="currentColor" y2="6"/><text fill="currentColor" y="9" dy="0.71em">2,013.5</text></g><g class="tick" opacity="1" transform="translate(62.08333333333333,0)"><line stroke="currentColor" y2="6"/><text fill="currentColor" y="9" dy="0.71em">2,014.0</text></g><g class="tick" opacity="1" transform="translate(93.125,0)"><line stroke="currentColor" y2="6"/><text fill="currentColor" y="9" dy="0.71em">2,014.5</text></g><g class="tick" opacity="1" transform="translate(124.16666666666666,0)"><line stroke="currentColor" y2="6"/><text fill="currentColor" y="9" dy="0.71em">2,015.0</text></g><g class="tick" opacity="1" transform="translate(155.20833333333331,0)"><line stroke="currentColor" y2="6"/><text fill="currentColor" y="9" dy="0.71em">2,015.5</text></g><g class="tick" opacity="1" transform="translate(186.25,0)"><line stroke="currentColor" y2="6"/><text fill="currentColor" y="9" dy="0.71em">2,016.0</text></g><g class="tick" opacity="1" transform="translate(217.29166666666666,0)"><line stroke="currentColor" y2="6"/><text fill="currentColor" y="9" dy="0.71em">2,016.5</text></g><g class="tick" opacity="1" transform="translate(248.33333333333331,0)"><line stroke="currentColor" y2="6"/><text fill="currentColor" y="9" dy="0.71em">2,017.0</text></g></g><text y="256" x="248.33333333333331" text-anchor="end" display="none" style="font-family: Arial, sans-serif; font-size: 12px; fill: rgb(123, 123, 123); font-weight: bold;">Premiere_Year</text><text x="4" text-anchor="start" dominant-baseline="hanging" display="none" style="font-family: Arial, sans-serif; font-size: 12px; fill: rgb(123, 123, 123); font-weight: bold;"/><g id="labels"><text x="62.08333333333333" y="241.75" text-anchor="middle" alignment-baseline="middle" style="font-family: Arial, sans-serif; font-size: 10px; fill: black; font-weight: bold;">Comedy</text><text x="124.16666666666666" y="208.25" text-anchor="middle" alignment-baseline="middle" style="font-family: Arial, sans-serif; font-size: 10px; fill: black; font-weight: bold;">Docu-Series</text><text x="0" y="242.75" text-anchor="start" alignment-baseline="middle" style="font-family: Arial, sans-serif; font-size: 10px; fill: black; font-weight: bold;">Drama</text><text x="0" y="209.25" text-anchor="start" alignment-baseline="middle" style="font-family: Arial, sans-serif; font-size: 10px; fill: black; font-weight: bold;">Family Animation</text><text x="248.33333333333331" y="109.75" text-anchor="end" alignment-baseline="middle" style="font-family: Arial, sans-serif; font-size: 10px; fill: black; font-weight: bold;">Family Live Action</text><text x="186.25" y="139.25" text-anchor="middle" alignment-baseline="middle" style="font-family: Arial, sans-serif; font-size: 10px; fill: black; font-weight: bold;">Foreign Language</text><text x="248.33333333333331" y="42.75" text-anchor="end" alignment-baseline="middle" style="font-family: Arial, sans-serif; font-size: 10px; fill: black; font-weight: bold;">Marvel</text><text x="186.25" y="105.75" text-anchor="middle" alignment-baseline="middle" style="font-family: Arial, sans-serif; font-size: 10px; fill: black; font-weight: bold;">Reality</text><text x="248.33333333333331" y="9.25" text-anchor="end" alignment-baseline="middle" style="font-family: Arial, sans-serif; font-size: 10px; fill: black; font-weight: bold;">Talk Show</text></g></g><text x="4" y="4" style="font-family: Arial, sans-serif; font-size: 12px; fill: black; font-weight: bold; dominant-baseline: hanging;">Pending</text></g><g transform="translate(536.6666666666666,0)"><g transform="translate(10,20)"><g><path fill="#1f77b4" d="M0,260C31.041666666666664,260,31.041666666666664,225.5,62.08333333333333,225.5C93.125,225.5,93.125,260,124.16666666666666,260C155.20833333333331,260,155.20833333333331,260,186.25,260L186.25,260C155.20833333333331,260,155.20833333333331,260,124.16666666666666,260C93.125,260,93.125,258,62.08333333333333,258C31.041666666666664,258,31.041666666666664,260,0,260Z"><title>Animation</title></path><path fill="#ff7f0e" d="M0,226.5C31.041666666666664,226.5,31.041666666666664,260,62.08333333333333,260C93.125,260,93.125,225.5,124.16666666666666,225.5C155.20833333333331,225.5,155.20833333333331,227.5,186.25,227.5L186.25,260C155.20833333333331,260,155.20833333333331,258,124.16666666666666,258C93.125,258,93.125,260,62.08333333333333,260C31.041666666666664,260,31.041666666666664,259,0,259Z"><title>Comedy</title></path><path fill="#2ca02c" d="M0,259C31.041666666666664,259,31.041666666666664,259,62.08333333333333,259C93.125,259,93.125,260,124.16666666666666,260C155.20833333333331,260,155.20833333333331,194,186.25,194L186.25,226.5C155.20833333333331,226.5,155.20833333333331,260,124.16666666666666,260C93.125,260,93.125,259,62.08333333333333,259C31.041666666666664,259,31.041666666666664,259,0,259Z"><title>Docu-Series</title></path><path fill="#d62728" d="M0,193C31.041666666666664,193,31.041666666666664,192,62.08333333333333,192C93.125,192,93.125,192,124.16666666666666,192C155.20833333333331,192,155.20833333333331,160.5,186.25,160.5L186.25,193C155.20833333333331,193,155.20833333333331,224.5,124.16666666666666,224.5C93.125,224.5,93.125,224.5,62.08333333333333,224.5C31.041666666666664,224.5,31.041666666666664,225.5,0,225.5Z"><title>Drama</title></path><path fill="#9467bd" d="M0,159.5C31.041666666666664,159.5,31.041666666666664,158.5,62.08333333333333,158.5C93.125,158.5,93.125,158.5,124.16666666666666,158.5C155.20833333333331,158.5,155.20833333333331,127,186.25,127L186.25,159.5C155.20833333333331,159.5,155.20833333333331,191,124.16666666666666,191C93.125,191,93.125,191,62.08333333333333,191C31.041666666666664,191,31.041666666666664,192,0,192Z"><title>Family Animation</title></path><path fill="#8c564b" d="M0,259C31.041666666666664,259,31.041666666666664,259,62.08333333333333,259C93.125,259,93.125,125,124.16666666666666,125C155.20833333333331,125,155.20833333333331,260,186.25,260L186.25,260C155.20833333333331,260,155.20833333333331,157.5,124.16666666666666,157.5C93.125,157.5,93.125,259,62.08333333333333,259C31.041666666666664,259,31.041666666666664,259,0,259Z"><title>Family Live Action</title></path><path fill="#e377c2" d="M0,259C31.041666666666664,259,31.041666666666664,258,62.08333333333333,258C93.125,258,93.125,259,124.16666666666666,259C155.20833333333331,259,155.20833333333331,93.5,186.25,93.5L186.25,126C155.20833333333331,126,155.20833333333331,259,124.16666666666666,259C93.125,259,93.125,258,62.08333333333333,258C31.041666666666664,258,31.041666666666664,259,0,259Z"><title>Foreign Language</title></path><path fill="#7f7f7f" d="M0,259C31.041666666666664,259,31.041666666666664,258,62.08333333333333,258C93.125,258,93.125,258,124.16666666666666,258C155.20833333333331,258,155.20833333333331,260,186.25,260L186.25,260C155.20833333333331,260,155.20833333333331,258,124.16666666666666,258C93.125,258,93.125,258,62.08333333333333,258C31.041666666666664,258,31.041666666666664,259,0,259Z"><title>Marvel</title></path><path fill="#bcbd22" d="M0,259C31.041666666666664,259,31.041666666666664,258,62.08333333333333,258C93.125,258,93.125,258,124.16666666666666,258C155.20833333333331,258,155.20833333333331,260,186.25,260L186.25,260C155.20833333333331,260,155.20833333333331,258,124.16666666666666,258C93.125,258,93.125,258,62.08333333333333,258C31.041666666666664,258,31.041666666666664,259,0,259Z"><title>Reality</title></path><path fill="#17becf" d="M0,259C31.041666666666664,259,31.041666666666664,258,62.08333333333333,258C93.125,258,93.125,258,124.16666666666666,258C155.20833333333331,258,155.20833333333331,260,186.25,260L186.25,260C155.20833333333331,260,155.20833333333331,258,124.16666666666666,258C93.125,258,93.125,258,62.08333333333333,258C31.041666666666664,258,31.041666666666664,259,0,259Z"><title>Talk Show</title></path></g><g id="xAxis" transform="translate(0,260)" fill="none" font-size="10" font-family="sans-serif" text-anchor="middle"><path class="domain" stroke="currentColor" d="M0,0H248.33333333333331"/><g class="tick" opacity="1" transform="translate(0,0)"><line stroke="currentColor" y2="6"/><text fill="currentColor" y="9" dy="0.71em">2,013.0</text></g><g class="tick" opacity="1" transform="translate(31.041666666666664,0)"><line stroke="currentColor" y2="6"/><text fill="currentColor" y="9" dy="0.71em">2,013.5</text></g><g class="tick" opacity="1" transform="translate(62.08333333333333,0)"><line stroke="currentColor" y2="6"/><text fill="currentColor" y="9" dy="0.71em">2,014.0</text></g><g class="tick" opacity="1" transform="translate(93.125,0)"><line stroke="currentColor" y2="6"/><text fill="currentColor" y="9" dy="0.71em">2,014.5</text></g><g class="tick" opacity="1" transform="translate(124.16666666666666,0)"><line stroke="currentColor" y2="6"/><text fill="currentColor" y="9" dy="0.71em">2,015.0</text></g><g class="tick" opacity="1" transform="translate(155.20833333333331,0)"><line stroke="currentColor" y2="6"/><text fill="currentColor" y="9" dy="0.71em">2,015.5</text></g><g class="tick" opacity="1" transform="translate(186.25,0)"><line stroke="currentColor" y2="6"/><text fill="currentColor" y="9" dy="0.71em">2,016.0</text></g><g class="tick" opacity="1" transform="translate(217.29166666666666,0)"><line stroke="currentColor" y2="6"/><text fill="currentColor" y="9" dy="0.71em">2,016.5</text></g><g class="tick" opacity="1" transform="translate(248.33333333333331,0)"><line stroke="currentColor" y2="6"/><text fill="currentColor" y="9" dy="0.71em">2,017.0</text></g></g><text y="256" x="248.33333333333331" text-anchor="end" display="none" style="font-family: Arial, sans-serif; font-size: 12px; fill: rgb(123, 123, 123); font-weight: bold;">Premiere_Year</text><text x="4" text-anchor="start" dominant-baseline="hanging" display="none" style="font-family: Arial, sans-serif; font-size: 12px; fill: rgb(123, 123, 123); font-weight: bold;"/><g id="labels"><text x="62.08333333333333" y="241.75" text-anchor="middle" alignment-baseline="middle" style="font-family: Arial, sans-serif; font-size: 10px; fill: black; font-weight: bold;">Animation</text><text x="0" y="242.75" text-anchor="start" alignment-baseline="middle" style="font-family: Arial, sans-serif; font-size: 10px; fill: black; font-weight: bold;">Comedy</text><text x="186.25" y="210.25" text-anchor="middle" alignment-baseline="middle" style="font-family: Arial, sans-serif; font-size: 10px; fill: black; font-weight: bold;">Docu-Series</text><text x="0" y="209.25" text-anchor="start" alignment-baseline="middle" style="font-family: Arial, sans-serif; font-size: 10px; fill: black; font-weight: bold;">Drama</text><text x="0" y="175.75" text-anchor="start" alignment-baseline="middle" style="font-family: Arial, sans-serif; font-size: 10px; fill: black; font-weight: bold;">Family Animation</text><text x="124.16666666666666" y="141.25" text-anchor="middle" alignment-baseline="middle" style="font-family: Arial, sans-serif; font-size: 10px; fill: black; font-weight: bold;">Family Live Action</text><text x="186.25" y="109.75" text-anchor="middle" alignment-baseline="middle" style="font-family: Arial, sans-serif; font-size: 10px; fill: black; font-weight: bold;">Foreign Language</text></g></g><text x="4" y="4" style="font-family: Arial, sans-serif; font-size: 12px; fill: black; font-weight: bold; dominant-baseline: hanging;">Ended</text></g><g transform="translate(0,300)"><g transform="translate(10,20)"><g><path fill="#1f77b4" d="M186.25,260L186.25,260Z"><title>Animation</title></path><path fill="#ff7f0e" d="M186.25,227.5L186.25,260Z"><title>Comedy</title></path><path fill="#2ca02c" d="M186.25,260L186.25,260Z"><title>Docu-Series</title></path><path fill="#d62728" d="M186.25,194L186.25,226.5Z"><title>Drama</title></path><path fill="#9467bd" d="M186.25,160.5L186.25,193Z"><title>Family Animation</title></path><path fill="#8c564b" d="M186.25,260L186.25,260Z"><title>Family Live Action</title></path><path fill="#e377c2" d="M186.25,260L186.25,260Z"><title>Foreign Language</title></path><path fill="#7f7f7f" d="M186.25,260L186.25,260Z"><title>Marvel</title></path><path fill="#bcbd22" d="M186.25,260L186.25,260Z"><title>Reality</title></path><path fill="#17becf" d="M186.25,127L186.25,159.5Z"><title>Talk Show</title></path></g><g id="xAxis" transform="translate(0,260)" fill="none" font-size="10" font-family="sans-serif" text-anchor="middle"><path class="domain" stroke="currentColor" d="M0,0H248.33333333333331"/><g class="tick" opacity="1" transform="translate(0,0)"><line stroke="currentColor" y2="6"/><text fill="currentColor" y="9" dy="0.71em">2,013.0</text></g><g class="tick" opacity="1" transform="translate(31.041666666666664,0)"><line stroke="currentColor" y2="6"/><text fill="currentColor" y="9" dy="0.71em">2,013.5</text></g><g class="tick" opacity="1" transform="translate(62.08333333333333,0)"><line stroke="currentColor" y2="6"/><text fill="currentColor" y="9" dy="0.71em">2,014.0</text></g><g class="tick" opacity="1" transform="translate(93.125,0)"><line stroke="currentColor" y2="6"/><text fill="currentColor" y="9" dy="0.71em">2,014.5</text></g><g class="tick" opacity="1" transform="translate(124.16666666666666,0)"><line stroke="currentColor" y2="6"/><text fill="currentColor" y="9" dy="0.71em">2,015.0</text></g><g class="tick" opacity="1" transform="translate(155.20833333333331,0)"><line stroke="currentColor" y2="6"/><text fill="currentColor" y="9" dy="0.71em">2,015.5</text></g><g class="tick" opacity="1" transform="translate(186.25,0)"><line stroke="currentColor" y2="6"/><text fill="currentColor" y="9" dy="0.71em">2,016.0</text></g><g class="tick" opacity="1" transform="translate(217.29166666666666,0)"><line stroke="currentColor" y2="6"/><text fill="currentColor" y="9" dy="0.71em">2,016.5</text></g><g class="tick" opacity="1" transform="translate(248.33333333333331,0)"><line stroke="currentColor" y2="6"/><text fill="currentColor" y="9" dy="0.71em">2,017.0</text></g></g><text y="256" x="248.33333333333331" text-anchor="end" display="none" style="font-family: Arial, sans-serif; font-size: 12px; fill: rgb(123, 123, 123); font-weight: bold;">Premiere_Year</text><text x="4" text-anchor="start" dominant-baseline="hanging" display="none" style="font-family: Arial, sans-serif; font-size: 12px; fill: rgb(123, 123, 123); font-weight: bold;"/><g id="labels"><text x="186.25" y="243.75" text-anchor="middle" alignment-baseline="middle" style="font-family: Arial, sans-serif; font-size: 10px; fill: black; font-weight: bold;">Comedy</text><text x="186.25" y="210.25" text-anchor="middle" alignment-baseline="middle" style="font-family: Arial, sans-serif; font-size: 10px; fill: black; font-weight: bold;">Drama</text><text x="186.25" y="176.75" text-anchor="middle" alignment-baseline="middle" style="font-family: Arial, sans-serif; font-size: 10px; fill: black; font-weight: bold;">Family Animation</text><text x="186.25" y="143.25" text-anchor="middle" alignment-baseline="middle" style="font-family: Arial, sans-serif; font-size: 10px; fill: black; font-weight: bold;">Talk Show</text></g></g><text x="4" y="4" style="font-family: Arial, sans-serif; font-size: 12px; fill: black; font-weight: bold; dominant-baseline: hanging;">Ongoing</text></g><g transform="translate(268.3333333333333,300)"><g transform="translate(10,20)"><g><path fill="#1f77b4" d="M124.16666666666666,260C155.20833333333331,260,155.20833333333331,260,186.25,260L186.25,260C155.20833333333331,260,155.20833333333331,260,124.16666666666666,260Z"><title>Animation</title></path><path fill="#ff7f0e" d="M124.16666666666666,226.5C155.20833333333331,226.5,155.20833333333331,227.5,186.25,227.5L186.25,260C155.20833333333331,260,155.20833333333331,259,124.16666666666666,259Z"><title>Comedy</title></path><path fill="#2ca02c" d="M124.16666666666666,260C155.20833333333331,260,155.20833333333331,260,186.25,260L186.25,260C155.20833333333331,260,155.20833333333331,260,124.16666666666666,260Z"><title>Docu-Series</title></path><path fill="#d62728" d="M124.16666666666666,260C155.20833333333331,260,155.20833333333331,194,186.25,194L186.25,226.5C155.20833333333331,226.5,155.20833333333331,260,124.16666666666666,260Z"><title>Drama</title></path><path fill="#9467bd" d="M124.16666666666666,259C155.20833333333331,259,155.20833333333331,260,186.25,260L186.25,260C155.20833333333331,260,155.20833333333331,259,124.16666666666666,259Z"><title>Family Animation</title></path><path fill="#8c564b" d="M124.16666666666666,259C155.20833333333331,259,155.20833333333331,260,186.25,260L186.25,260C155.20833333333331,260,155.20833333333331,259,124.16666666666666,259Z"><title>Family Live Action</title></path><path fill="#e377c2" d="M124.16666666666666,259C155.20833333333331,259,155.20833333333331,260,186.25,260L186.25,260C155.20833333333331,260,155.20833333333331,259,124.16666666666666,259Z"><title>Foreign Language</title></path><path fill="#7f7f7f" d="M124.16666666666666,259C155.20833333333331,259,155.20833333333331,260,186.25,260L186.25,260C155.20833333333331,260,155.20833333333331,259,124.16666666666666,259Z"><title>Marvel</title></path><path fill="#bcbd22" d="M124.16666666666666,259C155.20833333333331,259,155.20833333333331,260,186.25,260L186.25,260C155.20833333333331,260,155.20833333333331,259,124.16666666666666,259Z"><title>Reality</title></path><path fill="#17becf" d="M124.16666666666666,259C155.20833333333331,259,155.20833333333331,260,186.25,260L186.25,260C155.20833333333331,260,155.20833333333331,259,124.16666666666666,259Z"><title>Talk Show</title></path></g><g id="xAxis" transform="translate(0,260)" fill="none" font-size="10" font-family="sans-serif" text-anchor="middle"><path class="domain" stroke="currentColor" d="M0,0H248.33333333333331"/><g class="tick" opacity="1" transform="translate(0,0)"><line stroke="currentColor" y2="6"/><text fill="currentColor" y="9" dy="0.71em">2,013.0</text></g><g class="tick" opacity="1" transform="translate(31.041666666666664,0)"><line stroke="currentColor" y2="6"/><text fill="currentColor" y="9" dy="0.71em">2,013.5</text></g><g class="tick" opacity="1" transform="translate(62.08333333333333,0)"><line stroke="currentColor" y2="6"/><text fill="currentColor" y="9" dy="0.71em">2,014.0</text></g><g class="tick" opacity="1" transform="translate(93.125,0)"><line stroke="currentColor" y2="6"/><text fill="currentColor" y="9" dy="0.71em">2,014.5</text></g><g class="tick" opacity="1" transform="translate(124.16666666666666,0)"><line stroke="currentColor" y2="6"/><text fill="currentColor" y="9" dy="0.71em">2,015.0</text></g><g class="tick" opacity="1" transform="translate(155.20833333333331,0)"><line stroke="currentColor" y2="6"/><text fill="currentColor" y="9" dy="0.71em">2,015.5</text></g><g class="tick" opacity="1" transform="translate(186.25,0)"><line stroke="currentColor" y2="6"/><text fill="currentColor" y="9" dy="0.71em">2,016.0</text></g><g class="tick" opacity="1" transform="translate(217.29166666666666,0)"><line stroke="currentColor" y2="6"/><text fill="currentColor" y="9" dy="0.71em">2,016.5</text></g><g class="tick" opacity="1" transform="translate(248.33333333333331,0)"><line stroke="currentColor" y2="6"/><text fill="currentColor" y="9" dy="0.71em">2,017.0</text></g></g><text y="256" x="248.33333333333331" text-anchor="end" display="none" style="font-family: Arial, sans-serif; font-size: 12px; fill: rgb(123, 123, 123); font-weight: bold;">Premiere_Year</text><text x="4" text-anchor="start" dominant-baseline="hanging" display="none" style="font-family: Arial, sans-serif; font-size: 12px; fill: rgb(123, 123, 123); font-weight: bold;"/><g id="labels"><text x="124.16666666666666" y="242.75" text-anchor="middle" alignment-baseline="middle" style="font-family: Arial, sans-serif; font-size: 10px; fill: black; font-weight: bold;">Comedy</text><text x="186.25" y="210.25" text-anchor="middle" alignment-baseline="middle" style="font-family: Arial, sans-serif; font-size: 10px; fill: black; font-weight: bold;">Drama</text></g></g><text x="4" y="4" style="font-family: Arial, sans-serif; font-size: 12px; fill: black; font-weight: bold; dominant-baseline: hanging;">NA</text></g></g></svg>