<svg xmlns="http://www.w3.org/2000/svg" width="805" height="600"><rect width="805" height="600" x="0" y="0" fill="#FFFFFF" id="background"/><g id="viz"><g transform="translate(0,0)"><g transform="translate(50,20)"><g class="bars"><rect id="undefined - 1999" x="0.9986595174262334" y="176.01266666666666" height="383.98733333333337" width="40.334748287161155" fill="#1f77b4"/><rect id="undefined - 2009" x="42.332067322013664" y="246.26933333333332" height="313.7306666666667" width="40.334748287161155" fill="#1f77b4"/><rect id="undefined - 2010" x="83.6654751266011" y="445.0693333333333" height="114.9306666666667" width="40.334748287161155" fill="#1f77b4"/><rect id="undefined - 2011" x="124.99888293118852" y="531.986" height="28.01400000000001" width="40.334748287161155" fill="#1f77b4"/><rect id="undefined - 2012" x="166.33229073577596" y="494.5733333333333" height="65.42666666666668" width="40.334748287161155" fill="#1f77b4"/><rect id="undefined - 2013" x="207.6656985403634" y="526.9133333333333" height="33.0866666666667" width="40.334748287161155" fill="#1f77b4"/><rect id="undefined - 2014" x="248.9991063449508" y="526.9133333333333" height="33.0866666666667" width="40.334748287161155" fill="#1f77b4"/><rect id="undefined - 2015" x="290.33251414953827" y="505.7266666666667" height="54.27333333333331" width="40.334748287161155" fill="#1f77b4"/><rect id="undefined - 2016" x="331.6659219541257" y="554.6893333333334" height="5.310666666666634" width="40.334748287161155" fill="#1f77b4"/><rect id="undefined - 2017" x="372.9993297587131" y="204.4886666666667" height="355.5113333333333" width="40.334748287161155" fill="#1f77b4"/><rect id="undefined - 2018" x="414.33273756330055" y="368.02733333333333" height="191.97266666666667" width="40.334748287161155" fill="#1f77b4"/><rect id="undefined - 2019" x="455.66614536788796" y="526.9133333333333" height="33.0866666666667" width="40.334748287161155" fill="#1f77b4"/><rect id="undefined - 2020" x="496.9995531724754" y="25.465999999999962" height="534.534" width="40.334748287161155" fill="#1f77b4"/><rect id="undefined - 2021" x="538.3329609770628" y="525.3453333333333" height="34.654666666666685" width="40.334748287161155" fill="#1f77b4"/><rect id="undefined - 2022" x="579.6663687816504" y="526.5773333333334" height="33.4226666666666" width="40.334748287161155" fill="#1f77b4"/><rect id="undefined - 2023" x="620.9997765862377" y="517.2346666666666" height="42.76533333333339" width="40.334748287161155" fill="#1f77b4"/><rect id="undefined - 2024" x="662.3331843908252" y="494.96066666666667" height="65.03933333333333" width="40.334748287161155" fill="#1f77b4"/><rect id="undefined - 2025" x="703.6665921954125" y="526.9133333333333" height="33.0866666666667" width="40.334748287161155" fill="#1f77b4"/></g><g id="xAxis" transform="translate(0,560)" fill="none" font-size="10" font-family="sans-serif" text-anchor="middle"><path class="domain" stroke="currentColor" d="M0,0H745"/><g class="tick" opacity="1" transform="translate(21.16603366100681,0)"><line stroke="currentColor" y2="6"/><text fill="currentColor" y="9" dy="0.71em">1999</text></g><g class="tick" opacity="1" transform="translate(62.499441465594245,0)"><line stroke="currentColor" y2="6"/><text fill="currentColor" y="9" dy="0.71em">2009</text></g><g class="tick" opacity="1" transform="translate(103.83284927018167,0)"><line stroke="currentColor" y2="6"/><text fill="currentColor" y="9" dy="0.71em">2010</text></g><g class="tick" opacity="1" transform="translate(145.1662570747691,0)"><line stroke="currentColor" y2="6"/><text fill="currentColor" y="9" dy="0.71em">2011</text></g><g class="tick" opacity="1" transform="translate(186.49966487935654,0)"><line stroke="currentColor" y2="6"/><text fill="currentColor" y="9" dy="0.71em">2012</text></g><g class="tick" opacity="1" transform="translate(227.83307268394398,0)"><line stroke="currentColor" y2="6"/><text fill="currentColor" y="9" dy="0.71em">2013</text></g><g class="tick" opacity="1" transform="translate(269.16648048853136,0)"><line stroke="currentColor" y2="6"/><text fill="currentColor" y="9" dy="0.71em">2014</text></g><g class="tick" opacity="1" transform="translate(310.49988829311883,0)"><line stroke="currentColor" y2="6"/><text fill="currentColor" y="9" dy="0.71em">2015</text></g><g class="tick" opacity="1" transform="translate(351.83329609770624,0)"><line stroke="currentColor" y2="6"/><text fill="currentColor" y="9" dy="0.71em">2016</text></g><g class="tick" opacity="1" transform="translate(393.16670390229365,0)"><line stroke="currentColor" y2="6"/><text fill="currentColor" y="9" dy="0.71em">2017</text></g><g class="tick" opacity="1" transform="translate(434.5001117068811,0)"><line stroke="currentColor" y2="6"/><text fill="currentColor" y="9" dy="0.71em">2018</text></g><g class="tick" opacity="1" transform="translate(475.8335195114685,0)"><line stroke="currentColor" y2="6"/><text fill="currentColor" y="9" dy="0.71em">2019</text></g><g class="tick" opacity="1" transform="translate(517.166927316056,0)"><line stroke="currentColor" y2="6"/><text fill="currentColor" y="9" dy="0.71em">2020</text></g><g class="tick" opacity="1" transform="translate(558.5003351206434,0)"><line stroke="currentColor" y2="6"/><text fill="currentColor" y="9" dy="0.71em">2021</text></g><g class="tick" opacity="1" transform="translate(599.8337429252309,0)"><line stroke="currentColor" y2="6"/><text fill="currentColor" y="9" dy="0.71em">2022</text></g><g class="tick" opacity="1" transform="translate(641.1671507298182,0)"><line stroke="currentColor" y2="6"/><text fill="currentColor" y="9" dy="0.71em">2023</text></g><g class="tick" opacity="1" transform="translate(682.5005585344057,0)"><line stroke="currentColor" y2="6"/><text fill="currentColor" y="9" dy="0.71em">2024</text></g><g class="tick" opacity="1" transform="translate(723.833966338993,0)"><line stroke="currentColor" y2="6"/><text fill="currentColor" y="9" dy="0.71em">2025</text></g><text x="745" y="-4" text-anchor="end" style="font-family: Arial, sans-serif; font-size: 12px; fill: rgb(123, 123, 123); font-weight: bold;">Año</text></g><g id="yAxis" fill="none" font-size="10" font-family="sans-serif" text-anchor="end"><path class="domain" stroke="currentColor" d="M-6,560H0V0H-6"/><g class="tick" opacity="1" transform="translate(0,560)"><line stroke="currentColor" x2="-6"/><text fill="currentColor" x="-9" dy="0.32em">0</text></g><g class="tick" opacity="1" transform="translate(0,513.3333333333333)"><line stroke="currentColor" x2="-6"/><text fill="currentColor" x="-9" dy="0.32em">10</text></g><g class="tick" opacity="1" transform="translate(0,466.6666666666667)"><line stroke="currentColor" x2="-6"/><text fill="currentColor" x="-9" dy="0.32em">20</text></g><g class="tick" opacity="1" transform="translate(0,420)"><line stroke="currentColor" x2="-6"/><text fill="currentColor" x="-9" dy="0.32em">30</text></g><g class="tick" opacity="1" transform="translate(0,373.33333333333337)"><line stroke="currentColor" x2="-6"/><text fill="currentColor" x="-9" dy="0.32em">40</text></g><g class="tick" opacity="1" transform="translate(0,326.66666666666663)"><line stroke="currentColor" x2="-6"/><text fill="currentColor" x="-9" dy="0.32em">50</text></g><g class="tick" opacity="1" transform="translate(0,280)"><line stroke="currentColor" x2="-6"/><text fill="currentColor" x="-9" dy="0.32em">60</text></g><g class="tick" opacity="1" transform="translate(0,233.33333333333331)"><line stroke="currentColor" x2="-6"/><text fill="currentColor" x="-9" dy="0.32em">70</text></g><g class="tick" opacity="1" transform="translate(0,186.66666666666669)"><line stroke="currentColor" x2="-6"/><text fill="currentColor" x="-9" dy="0.32em">80</text></g><g class="tick" opacity="1" transform="translate(0,140)"><line stroke="currentColor" x2="-6"/><text fill="currentColor" x="-9" dy="0.32em">90</text></g><g class="tick" opacity="1" transform="translate(0,93.33333333333331)"><line stroke="currentColor" x2="-6"/><text fill="currentColor" x="-9" dy="0.32em">100</text></g><g class="tick" opacity="1" transform="translate(0,46.666666666666686)"><line stroke="currentColor" x2="-6"/><text fill="currentColor" x="-9" dy="0.32em">110</text></g><g class="tick" opacity="1" transform="translate(0,0)"><line stroke="currentColor" x2="-6"/><text fill="currentColor" x="-9" dy="0.32em">120</text></g><text x="4" text-anchor="start" dominant-baseline="hanging" style="font-family: Arial, sans-serif; font-size: 12px; fill: rgb(123, 123, 123); font-weight: bold;">KM de Distancia desde Buenos Aires [sum]</text></g></g><text y="4" x="4" style="font-family: Arial, sans-serif; font-size: 12px; fill: black; font-weight: bold; dominant-baseline: hanging;"/></g></g></svg>