<svg xmlns="http://www.w3.org/2000/svg" width="1005" height="600"><rect width="1005" height="600" x="0" y="0" fill="#FFFFFF" id="background"/><g transform="translate(20,20)" id="viz"><g id="nodes"><g transform="translate(383.5,281)"><path id="p_945.5" d="M-5.143516556418883e-14,280A280,280,0,1,1,5.143516556418883e-14,-280A280,280,0,1,1,-5.143516556418883e-14,280Z" fill="none" stroke="#ccc"/><text fill="black" text-anchor="middle" font-family="'Arial', sans-serif" font-size="8" dominant-baseline="middle"><textPath href="#p_945.5" startOffset="50%"/></text></g><g transform="translate(260.3949661999415,281)" id="America"><path id="p_695.9780545102793" d="M-2.8212755625363064e-14,153.58308831033779A153.58308831033779,153.58308831033779,0,1,1,2.8212755625363064e-14,-153.58308831033779A153.58308831033779,153.58308831033779,0,1,1,-2.8212755625363064e-14,153.58308831033779Z" fill="none" stroke="#ccc"/><text fill="black" text-anchor="middle" font-family="'Arial', sans-serif" font-size="8" dominant-baseline="middle"><textPath href="#p_695.9780545102793" startOffset="50%">America</textPath></text></g><g transform="translate(538.7390272551397,281)" id="Europa"><path id="p_942.1881221103963" d="M-2.230983679107499e-14,121.4490948552566A121.4490948552566,121.4490948552566,0,1,1,2.230983679107499e-14,-121.4490948552566A121.4490948552566,121.4490948552566,0,1,1,-2.230983679107499e-14,121.4490948552566Z" fill="none" stroke="#ccc"/><text fill="black" text-anchor="middle" font-family="'Arial', sans-serif" font-size="8" dominant-baseline="middle"><textPath href="#p_942.1881221103963" startOffset="50%">Europa</textPath></text></g><g transform="translate(423.3658105622681,432.05835207006476)" id="Asia"><path id="p_921.7410814482322" d="M-1.1998523333708803e-14,65.31691881589937A65.31691881589937,65.31691881589937,0,1,1,1.1998523333708803e-14,-65.31691881589937A65.31691881589937,65.31691881589937,0,1,1,-1.1998523333708803e-14,65.31691881589937Z" fill="none" stroke="#ccc"/><text fill="black" text-anchor="middle" font-family="'Arial', sans-serif" font-size="8" dominant-baseline="middle"><textPath href="#p_921.7410814482322" startOffset="50%">Asia</textPath></text></g><g transform="translate(206.88738225544463,291.0543047490575)" id="Estados Unidos"><path id="p_565.116160604973" d="M-1.2156053592011636e-14,66.17447360047079A66.17447360047079,66.17447360047079,0,1,1,1.2156053592011636e-14,-66.17447360047079A66.17447360047079,66.17447360047079,0,1,1,-1.2156053592011636e-14,66.17447360047079Z" fill="none" stroke="#ccc"/><text fill="black" text-anchor="middle" font-family="'Arial', sans-serif" font-size="8" dominant-baseline="middle"><textPath href="#p_565.116160604973" startOffset="50%">Estados Unidos</textPath></text></g><g transform="translate(332.8110787815238,291.0543047490575)" id="Cuba"><path id="p_681.3027285665859" d="M-1.0367372092607669e-14,56.4373450360046A56.4373450360046,56.4373450360046,0,1,1,1.0367372092607669e-14,-56.4373450360046A56.4373450360046,56.4373450360046,0,1,1,-1.0367372092607669e-14,56.4373450360046Z" fill="none" stroke="#ccc"/><text fill="black" text-anchor="middle" font-family="'Arial', sans-serif" font-size="8" dominant-baseline="middle"><textPath href="#p_681.3027285665859" startOffset="50%">Cuba</textPath></text></g><g transform="translate(278.47089065450194,382.7985220404778)" id="Costa Rica"><path id="p_709.149723446001" d="M-8.611773375640698e-15,46.88031075102117A46.88031075102117,46.88031075102117,0,1,1,8.611773375640698e-15,-46.88031075102117A46.88031075102117,46.88031075102117,0,1,1,-8.611773375640698e-15,46.88031075102117Z" fill="none" stroke="#ccc"/><text fill="black" text-anchor="middle" font-family="'Arial', sans-serif" font-size="8" dominant-baseline="middle"><textPath href="#p_709.149723446001" startOffset="50%">Costa Rica</textPath></text></g><g transform="translate(277.0971622291787,221.82442742852996)" id="Chile"><path id="p_529.0364000156338" d="M-5.348303896892295e-15,29.1148103579252A29.1148103579252,29.1148103579252,0,1,1,5.348303896892295e-15,-29.1148103579252A29.1148103579252,29.1148103579252,0,1,1,-5.348303896892295e-15,29.1148103579252Z" fill="none" stroke="#ccc"/><text fill="black" text-anchor="middle" font-family="'Arial', sans-serif" font-size="8" dominant-baseline="middle"><textPath href="#p_529.0364000156338" startOffset="50%">Chile</textPath></text></g><g transform="translate(216.1311007671284,181.02239739801024)" id="Mexico"><path id="p_439.0866511443049" d="M-7.51929821624173e-15,40.93315297916623A40.93315297916623,40.93315297916623,0,1,1,7.51929821624173e-15,-40.93315297916623A40.93315297916623,40.93315297916623,0,1,1,-7.51929821624173e-15,40.93315297916623Z" fill="none" stroke="#ccc"/><text fill="black" text-anchor="middle" font-family="'Arial', sans-serif" font-size="8" dominant-baseline="middle"><textPath href="#p_439.0866511443049" startOffset="50%">Mexico</textPath></text></g><g transform="translate(339.44246665268605,196.77553678471617)" id="Brasil"><path id="p_571.980480284742" d="M-6.385763400229314e-15,34.76247684733988A34.76247684733988,34.76247684733988,0,1,1,6.385763400229314e-15,-34.76247684733988A34.76247684733988,34.76247684733988,0,1,1,-6.385763400229314e-15,34.76247684733988Z" fill="none" stroke="#ccc"/><text fill="black" text-anchor="middle" font-family="'Arial', sans-serif" font-size="8" dominant-baseline="middle"><textPath href="#p_571.980480284742" startOffset="50%">Brasil</textPath></text></g><g transform="translate(210.19314292130642,378.6875352182637)" id="Republica Dominicana"><path id="p_608.089886035641" d="M-3.3449772247397878e-15,18.209207896070886A18.209207896070886,18.209207896070886,0,1,1,3.3449772247397878e-15,-18.209207896070886A18.209207896070886,18.209207896070886,0,1,1,-3.3449772247397878e-15,18.209207896070886Z" fill="none" stroke="#ccc"/><text fill="black" text-anchor="middle" font-family="'Arial', sans-serif" font-size="8" dominant-baseline="middle"><textPath href="#p_608.089886035641" startOffset="50%">Republica Dominicana</textPath></text></g><g transform="translate(345.2551946186177,368.0131308654396)" id="Bahamas"><path id="p_732.4775333801282" d="M-3.3449772247397878e-15,18.209207896070886A18.209207896070886,18.209207896070886,0,1,1,3.3449772247397878e-15,-18.209207896070886A18.209207896070886,18.209207896070886,0,1,1,-3.3449772247397878e-15,18.209207896070886Z" fill="none" stroke="#ccc"/><text fill="black" text-anchor="middle" font-family="'Arial', sans-serif" font-size="8" dominant-baseline="middle"><textPath href="#p_732.4775333801282" startOffset="50%">Bahamas</textPath></text></g><g transform="translate(485.76734251172894,281)" id="Italia"><path id="p_832.932874733971" d="M-1.1970714067605366e-14,65.16553222224206A65.16553222224206,65.16553222224206,0,1,1,1.1970714067605366e-14,-65.16553222224206A65.16553222224206,65.16553222224206,0,1,1,-1.1970714067605366e-14,65.16553222224206Z" fill="none" stroke="#ccc"/><text fill="black" text-anchor="middle" font-family="'Arial', sans-serif" font-size="8" dominant-baseline="middle"><textPath href="#p_832.932874733971" startOffset="50%">Italia</textPath></text></g><g transform="translate(605.5604984221836,281)" id="Grecia"><path id="p_938.8762442207925" d="M-9.426549575718838e-15,51.31574579860887A51.31574579860887,51.31574579860887,0,1,1,9.426549575718838e-15,-51.31574579860887A51.31574579860887,51.31574579860887,0,1,1,-9.426549575718838e-15,51.31574579860887Z" fill="none" stroke="#ccc"/><text fill="black" text-anchor="middle" font-family="'Arial', sans-serif" font-size="8" dominant-baseline="middle"><textPath href="#p_938.8762442207925" startOffset="50%">Grecia</textPath></text></g><g transform="translate(554.8855061644927,333.3187270001884)" id="Turquia"><path id="p_907.4134410607519" d="M-3.3449772247397878e-15,18.209207896070886A18.209207896070886,18.209207896070886,0,1,1,3.3449772247397878e-15,-18.209207896070886A18.209207896070886,18.209207896070886,0,1,1,-3.3449772247397878e-15,18.209207896070886Z" fill="none" stroke="#ccc"/><text fill="black" text-anchor="middle" font-family="'Arial', sans-serif" font-size="8" dominant-baseline="middle"><textPath href="#p_907.4134410607519" startOffset="50%">Turquia</textPath></text></g><g transform="translate(554.8855061644927,228.6812729998116)" id="Suiza"><path id="p_802.7759870603752" d="M-3.3449772247397878e-15,18.209207896070886A18.209207896070886,18.209207896070886,0,1,1,3.3449772247397878e-15,-18.209207896070886A18.209207896070886,18.209207896070886,0,1,1,-3.3449772247397878e-15,18.209207896070886Z" fill="none" stroke="#ccc"/><text fill="black" text-anchor="middle" font-family="'Arial', sans-serif" font-size="8" dominant-baseline="middle"><textPath href="#p_802.7759870603752" startOffset="50%">Suiza</textPath></text></g><g transform="translate(524.2854294007226,203.34095851697367)" id="Inglaterra"><path id="p_746.8355958137672" d="M-3.3449772247397878e-15,18.209207896070886A18.209207896070886,18.209207896070886,0,1,1,3.3449772247397878e-15,-18.209207896070886A18.209207896070886,18.209207896070886,0,1,1,-3.3449772247397878e-15,18.209207896070886Z" fill="none" stroke="#ccc"/><text fill="black" text-anchor="middle" font-family="'Arial', sans-serif" font-size="8" dominant-baseline="middle"><textPath href="#p_746.8355958137672" startOffset="50%">Inglaterra</textPath></text></g><g transform="translate(524.2854294007226,358.65904148302633)" id="Francia"><path id="p_902.1536787798198" d="M-3.3449772247397878e-15,18.209207896070886A18.209207896070886,18.209207896070886,0,1,1,3.3449772247397878e-15,-18.209207896070886A18.209207896070886,18.209207896070886,0,1,1,-3.3449772247397878e-15,18.209207896070886Z" fill="none" stroke="#ccc"/><text fill="black" text-anchor="middle" font-family="'Arial', sans-serif" font-size="8" dominant-baseline="middle"><textPath href="#p_902.1536787798198" startOffset="50%">Francia</textPath></text></g><g transform="translate(423.3658105622681,432.05835207006476)" id="Filipinas"><path id="p_918.4292035586284" d="M-1.1390141235208281e-14,62.0050409262956A62.0050409262956,62.0050409262956,0,1,1,1.1390141235208281e-14,-62.0050409262956A62.0050409262956,62.0050409262956,0,1,1,-1.1390141235208281e-14,62.0050409262956Z" fill="none" stroke="#ccc"/><text fill="black" text-anchor="middle" font-family="'Arial', sans-serif" font-size="8" dominant-baseline="middle"><textPath href="#p_918.4292035586284" startOffset="50%">Filipinas</textPath></text></g><g transform="translate(184.37165769519117,297.60023668693384)" id="Miami"><path id="p_522.3865247780973" d="M-7.2403501431005e-15,39.41463039597221A39.41463039597221,39.41463039597221,0,1,1,7.2403501431005e-15,-39.41463039597221A39.41463039597221,39.41463039597221,0,1,1,-7.2403501431005e-15,39.41463039597221Z" fill="rgb(253, 202, 121)" stroke="none"/></g><g transform="translate(248.1661721190606,297.60023668693384)" id="New York"><path id="p_567.8344149442878" d="M-3.870129942251679e-15,21.068006138293452A21.068006138293452,21.068006138293452,0,1,1,3.870129942251679e-15,-21.068006138293452A21.068006138293452,21.068006138293452,0,1,1,-3.870129942251679e-15,21.068006138293452Z" fill="rgb(253, 202, 121)" stroke="none"/></g><g transform="translate(230.20277123679395,332.52896084119186)" id="Chicago"><path id="p_578.6290620844529" d="M-2.736595126239264e-15,14.897330006467106A14.897330006467106,14.897330006467106,0,1,1,2.736595126239264e-15,-14.897330006467106A14.897330006467106,14.897330006467106,0,1,1,-2.736595126239264e-15,14.897330006467106Z" fill="rgb(253, 202, 121)" stroke="none"/></g><g transform="translate(230.20277123679395,262.6715125326758)" id="Orlando"><path id="p_508.7716137759369" d="M-2.736595126239264e-15,14.897330006467106A14.897330006467106,14.897330006467106,0,1,1,2.736595126239264e-15,-14.897330006467106A14.897330006467106,14.897330006467106,0,1,1,-2.736595126239264e-15,14.897330006467106Z" fill="rgb(253, 202, 121)" stroke="none"/></g><g transform="translate(203.41700715690698,243.21474778236797)" id="Naples"><path id="p_462.52908494574206" d="M-2.736595126239264e-15,14.897330006467106A14.897330006467106,14.897330006467106,0,1,1,2.736595126239264e-15,-14.897330006467106A14.897330006467106,14.897330006467106,0,1,1,-2.736595126239264e-15,14.897330006467106Z" fill="rgb(253, 202, 121)" stroke="none"/></g><g transform="translate(316.2578098302548,300.61133903404095)" id="Habana"><path id="p_632.7664788707629" d="M-2.736595126239264e-15,14.897330006467106A14.897330006467106,14.897330006467106,0,1,1,2.736595126239264e-15,-14.897330006467106A14.897330006467106,14.897330006467106,0,1,1,-2.736595126239264e-15,14.897330006467106Z" fill="rgb(251, 163, 94)" stroke="none"/></g><g transform="translate(349.3643477327928,300.61133903404095)" id="Viñales"><path id="p_665.8730167733008" d="M-2.736595126239264e-15,14.897330006467106A14.897330006467106,14.897330006467106,0,1,1,2.736595126239264e-15,-14.897330006467106A14.897330006467106,14.897330006467106,0,1,1,-2.736595126239264e-15,14.897330006467106Z" fill="rgb(251, 163, 94)" stroke="none"/></g><g transform="translate(332.8110787815238,329.28244188899123)" id="Cienfuegos"><path id="p_677.9908506769822" d="M-2.736595126239264e-15,14.897330006467106A14.897330006467106,14.897330006467106,0,1,1,2.736595126239264e-15,-14.897330006467106A14.897330006467106,14.897330006467106,0,1,1,-2.736595126239264e-15,14.897330006467106Z" fill="rgb(251, 163, 94)" stroke="none"/></g><g transform="translate(332.8110787815238,271.9402361790907)" id="Trinidad"><path id="p_620.6486449670816" d="M-2.736595126239264e-15,14.897330006467106A14.897330006467106,14.897330006467106,0,1,1,2.736595126239264e-15,-14.897330006467106A14.897330006467106,14.897330006467106,0,1,1,-2.736595126239264e-15,14.897330006467106Z" fill="rgb(251, 163, 94)" stroke="none"/></g><g transform="translate(299.7045408789858,271.9402361790907)" id="Cayo Coco"><path id="p_587.5421070645435" d="M-2.736595126239264e-15,14.897330006467106A14.897330006467106,14.897330006467106,0,1,1,2.736595126239264e-15,-14.897330006467106A14.897330006467106,14.897330006467106,0,1,1,-2.736595126239264e-15,14.897330006467106Z" fill="rgb(251, 163, 94)" stroke="none"/></g><g transform="translate(365.9176166840618,271.9402361790907)" id="Cayo Guillermo"><path id="p_653.7551828696195" d="M-2.736595126239264e-15,14.897330006467106A14.897330006467106,14.897330006467106,0,1,1,2.736595126239264e-15,-14.897330006467106A14.897330006467106,14.897330006467106,0,1,1,-2.736595126239264e-15,14.897330006467106Z" fill="rgb(251, 163, 94)" stroke="none"/></g><g transform="translate(261.91762170323295,382.7985220404778)" id="San Jose"><path id="p_660.6134737501778" d="M-2.736595126239264e-15,14.897330006467106A14.897330006467106,14.897330006467106,0,1,1,2.736595126239264e-15,-14.897330006467106A14.897330006467106,14.897330006467106,0,1,1,-2.736595126239264e-15,14.897330006467106Z" fill="rgb(243, 120, 76)" stroke="none"/></g><g transform="translate(295.02415960577093,382.7985220404778)" id="El Arenal"><path id="p_693.7200116527158" d="M-2.736595126239264e-15,14.897330006467106A14.897330006467106,14.897330006467106,0,1,1,2.736595126239264e-15,-14.897330006467106A14.897330006467106,14.897330006467106,0,1,1,-2.736595126239264e-15,14.897330006467106Z" fill="rgb(243, 120, 76)" stroke="none"/></g><g transform="translate(278.47089065450194,411.46962489542807)" id="Tamarindo"><path id="p_705.8378455563972" d="M-2.736595126239264e-15,14.897330006467106A14.897330006467106,14.897330006467106,0,1,1,2.736595126239264e-15,-14.897330006467106A14.897330006467106,14.897330006467106,0,1,1,-2.736595126239264e-15,14.897330006467106Z" fill="rgb(243, 120, 76)" stroke="none"/></g><g transform="translate(278.47089065450194,354.1274191855275)" id="Manuel Antonio"><path id="p_648.4956398464966" d="M-2.736595126239264e-15,14.897330006467106A14.897330006467106,14.897330006467106,0,1,1,2.736595126239264e-15,-14.897330006467106A14.897330006467106,14.897330006467106,0,1,1,-2.736595126239264e-15,14.897330006467106Z" fill="rgb(243, 120, 76)" stroke="none"/></g><g transform="translate(277.0971622291787,221.82442742852996)" id="Santiago de Chile"><path id="p_525.72452212603" d="M-4.739921798391771e-15,25.80293246832142A25.80293246832142,25.80293246832142,0,1,1,4.739921798391771e-15,-25.80293246832142A25.80293246832142,25.80293246832142,0,1,1,-4.739921798391771e-15,25.80293246832142Z" fill="rgb(225, 82, 74)" stroke="none"/></g><g transform="translate(199.5778318158594,181.02239739801024)" id="Tulum"><path id="p_402.6682353521631" d="M-3.870129942251679e-15,21.068006138293452A21.068006138293452,21.068006138293452,0,1,1,3.870129942251679e-15,-21.068006138293452A21.068006138293452,21.068006138293452,0,1,1,-3.870129942251679e-15,21.068006138293452Z" fill="rgb(114, 195, 167)" stroke="none"/></g><g transform="translate(238.85504585022375,181.02239739801024)" id="Cancun"><path id="p_435.7747732547011" d="M-2.736595126239264e-15,14.897330006467106A14.897330006467106,14.897330006467106,0,1,1,2.736595126239264e-15,-14.897330006467106A14.897330006467106,14.897330006467106,0,1,1,-2.736595126239264e-15,14.897330006467106Z" fill="rgb(114, 195, 167)" stroke="none"/></g><g transform="translate(322.88919770141706,196.77553678471617)" id="Rio Janeiro"><path id="p_535.5620644926004" d="M-2.736595126239264e-15,14.897330006467106A14.897330006467106,14.897330006467106,0,1,1,2.736595126239264e-15,-14.897330006467106A14.897330006467106,14.897330006467106,0,1,1,-2.736595126239264e-15,14.897330006467106Z" fill="rgb(196, 44, 74)" stroke="none"/></g><g transform="translate(355.99573560395504,196.77553678471617)" id="Buzios"><path id="p_568.6686023951382" d="M-2.736595126239264e-15,14.897330006467106A14.897330006467106,14.897330006467106,0,1,1,2.736595126239264e-15,-14.897330006467106A14.897330006467106,14.897330006467106,0,1,1,-2.736595126239264e-15,14.897330006467106Z" fill="rgb(196, 44, 74)" stroke="none"/></g><g transform="translate(210.19314292130642,378.6875352182637)" id="Punta Cana"><path id="p_604.7780081460372" d="M-2.736595126239264e-15,14.897330006467106A14.897330006467106,14.897330006467106,0,1,1,2.736595126239264e-15,-14.897330006467106A14.897330006467106,14.897330006467106,0,1,1,-2.736595126239264e-15,14.897330006467106Z" fill="rgb(75, 160, 177)" stroke="none"/></g><g transform="translate(345.2551946186177,368.0131308654396)" id="Nassau"><path id="p_729.1656554905244" d="M-2.736595126239264e-15,14.897330006467106A14.897330006467106,14.897330006467106,0,1,1,2.736595126239264e-15,-14.897330006467106A14.897330006467106,14.897330006467106,0,1,1,-2.736595126239264e-15,14.897330006467106Z" fill="rgb(158, 1, 66)" stroke="none"/></g><g transform="translate(465.8166229105918,281)" id="Roma"><path id="p_768.8846290488852" d="M-3.870129942251679e-15,21.068006138293452A21.068006138293452,21.068006138293452,0,1,1,3.870129942251679e-15,-21.068006138293452A21.068006138293452,21.068006138293452,0,1,1,-3.870129942251679e-15,21.068006138293452Z" fill="rgb(160, 217, 163)" stroke="none"/></g><g transform="translate(505.09383694495614,281)" id="Milan"><path id="p_801.9911669514232" d="M-2.736595126239264e-15,14.897330006467106A14.897330006467106,14.897330006467106,0,1,1,2.736595126239264e-15,-14.897330006467106A14.897330006467106,14.897330006467106,0,1,1,-2.736595126239264e-15,14.897330006467106Z" fill="rgb(160, 217, 163)" stroke="none"/></g><g transform="translate(491.1411817116542,311.02276242841083)" id="Florencia"><path id="p_818.0612741465321" d="M-2.736595126239264e-15,14.897330006467106A14.897330006467106,14.897330006467106,0,1,1,2.736595126239264e-15,-14.897330006467106A14.897330006467106,14.897330006467106,0,1,1,-2.736595126239264e-15,14.897330006467106Z" fill="rgb(160, 217, 163)" stroke="none"/></g><g transform="translate(491.1411817116542,250.97723757158917)" id="Venecia"><path id="p_758.0157492897105" d="M-2.736595126239264e-15,14.897330006467106A14.897330006467106,14.897330006467106,0,1,1,2.736595126239264e-15,-14.897330006467106A14.897330006467106,14.897330006467106,0,1,1,-2.736595126239264e-15,14.897330006467106Z" fill="rgb(160, 217, 163)" stroke="none"/></g><g transform="translate(459.1961689971136,242.28476873011374)" id="Sorrento"><path id="p_717.3782677336944" d="M-2.736595126239264e-15,14.897330006467106A14.897330006467106,14.897330006467106,0,1,1,2.736595126239264e-15,-14.897330006467106A14.897330006467106,14.897330006467106,0,1,1,-2.736595126239264e-15,14.897330006467106Z" fill="rgb(160, 217, 163)" stroke="none"/></g><g transform="translate(459.1961689971136,319.71523126988626)" id="Amalfi"><path id="p_794.808730273467" d="M-2.736595126239264e-15,14.897330006467106A14.897330006467106,14.897330006467106,0,1,1,2.736595126239264e-15,-14.897330006467106A14.897330006467106,14.897330006467106,0,1,1,-2.736595126239264e-15,14.897330006467106Z" fill="rgb(160, 217, 163)" stroke="none"/></g><g transform="translate(524.117984283094,253.90526490350925)" id="Toscana"><path id="p_793.9205791930702" d="M-2.736595126239264e-15,14.897330006467106A14.897330006467106,14.897330006467106,0,1,1,2.736595126239264e-15,-14.897330006467106A14.897330006467106,14.897330006467106,0,1,1,-2.736595126239264e-15,14.897330006467106Z" fill="rgb(160, 217, 163)" stroke="none"/></g><g transform="translate(605.5604984221836,281)" id="Atenas"><path id="p_902.4578284286507" d="M-2.736595126239264e-15,14.897330006467106A14.897330006467106,14.897330006467106,0,1,1,2.736595126239264e-15,-14.897330006467106A14.897330006467106,14.897330006467106,0,1,1,-2.736595126239264e-15,14.897330006467106Z" fill="rgb(235, 247, 166)" stroke="none"/></g><g transform="translate(638.6670363247216,281)" id="Mikonos"><path id="p_935.5643663311887" d="M-2.736595126239264e-15,14.897330006467106A14.897330006467106,14.897330006467106,0,1,1,2.736595126239264e-15,-14.897330006467106A14.897330006467106,14.897330006467106,0,1,1,-2.736595126239264e-15,14.897330006467106Z" fill="rgb(235, 247, 166)" stroke="none"/></g><g transform="translate(622.1137673734527,309.6711028549503)" id="Paros"><path id="p_947.68220023487" d="M-2.736595126239264e-15,14.897330006467106A14.897330006467106,14.897330006467106,0,1,1,2.736595126239264e-15,-14.897330006467106A14.897330006467106,14.897330006467106,0,1,1,-2.736595126239264e-15,14.897330006467106Z" fill="rgb(235, 247, 166)" stroke="none"/></g><g transform="translate(622.1137673734527,252.32889714504972)" id="Rodas"><path id="p_890.3399945249695" d="M-2.736595126239264e-15,14.897330006467106A14.897330006467106,14.897330006467106,0,1,1,2.736595126239264e-15,-14.897330006467106A14.897330006467106,14.897330006467106,0,1,1,-2.736595126239264e-15,14.897330006467106Z" fill="rgb(235, 247, 166)" stroke="none"/></g><g transform="translate(589.0072294709146,252.32889714504972)" id="Santorini"><path id="p_857.2334566224314" d="M-2.736595126239264e-15,14.897330006467106A14.897330006467106,14.897330006467106,0,1,1,2.736595126239264e-15,-14.897330006467106A14.897330006467106,14.897330006467106,0,1,1,-2.736595126239264e-15,14.897330006467106Z" fill="rgb(235, 247, 166)" stroke="none"/></g><g transform="translate(554.8855061644927,333.3187270001884)" id="Kusadasi"><path id="p_904.1015631711481" d="M-2.736595126239264e-15,14.897330006467106A14.897330006467106,14.897330006467106,0,1,1,2.736595126239264e-15,-14.897330006467106A14.897330006467106,14.897330006467106,0,1,1,-2.736595126239264e-15,14.897330006467106Z" fill="rgb(94, 79, 162)" stroke="none"/></g><g transform="translate(554.8855061644927,228.6812729998116)" id="Zurich"><path id="p_799.4641091707714" d="M-2.736595126239264e-15,14.897330006467106A14.897330006467106,14.897330006467106,0,1,1,2.736595126239264e-15,-14.897330006467106A14.897330006467106,14.897330006467106,0,1,1,-2.736595126239264e-15,14.897330006467106Z" fill="rgb(68, 120, 178)" stroke="none"/></g><g transform="translate(524.2854294007226,203.34095851697367)" id="Londres"><path id="p_743.5237179241634" d="M-2.736595126239264e-15,14.897330006467106A14.897330006467106,14.897330006467106,0,1,1,2.736595126239264e-15,-14.897330006467106A14.897330006467106,14.897330006467106,0,1,1,-2.736595126239264e-15,14.897330006467106Z" fill="rgb(204, 234, 159)" stroke="none"/></g><g transform="translate(524.2854294007226,358.65904148302633)" id="Paris"><path id="p_898.841800890216" d="M-2.736595126239264e-15,14.897330006467106A14.897330006467106,14.897330006467106,0,1,1,2.736595126239264e-15,-14.897330006467106A14.897330006467106,14.897330006467106,0,1,1,-2.736595126239264e-15,14.897330006467106Z" fill="rgb(251, 248, 176)" stroke="none"/></g><g transform="translate(406.8125416109991,432.05835207006476)" id="Madrid"><path id="p_854.768223687531" d="M-2.736595126239264e-15,14.897330006467106A14.897330006467106,14.897330006467106,0,1,1,2.736595126239264e-15,-14.897330006467106A14.897330006467106,14.897330006467106,0,1,1,-2.736595126239264e-15,14.897330006467106Z" fill="rgb(254, 232, 154)" stroke="none"/></g><g transform="translate(439.9190795135371,432.05835207006476)" id="Manila"><path id="p_887.8747615900689" d="M-2.736595126239264e-15,14.897330006467106A14.897330006467106,14.897330006467106,0,1,1,2.736595126239264e-15,-14.897330006467106A14.897330006467106,14.897330006467106,0,1,1,-2.736595126239264e-15,14.897330006467106Z" fill="rgb(254, 232, 154)" stroke="none"/></g><g transform="translate(423.3658105622681,460.72945492501503)" id="Bohol"><path id="p_899.9925954937502" d="M-2.736595126239264e-15,14.897330006467106A14.897330006467106,14.897330006467106,0,1,1,2.736595126239264e-15,-14.897330006467106A14.897330006467106,14.897330006467106,0,1,1,-2.736595126239264e-15,14.897330006467106Z" fill="rgb(254, 232, 154)" stroke="none"/></g><g transform="translate(423.3658105622681,403.3872492151145)" id="Cebu"><path id="p_842.6503897838496" d="M-2.736595126239264e-15,14.897330006467106A14.897330006467106,14.897330006467106,0,1,1,2.736595126239264e-15,-14.897330006467106A14.897330006467106,14.897330006467106,0,1,1,-2.736595126239264e-15,14.897330006467106Z" fill="rgb(254, 232, 154)" stroke="none"/></g><g transform="translate(390.25927265973013,403.3872492151145)" id="Port Barton"><path id="p_809.5438518813118" d="M-2.736595126239264e-15,14.897330006467106A14.897330006467106,14.897330006467106,0,1,1,2.736595126239264e-15,-14.897330006467106A14.897330006467106,14.897330006467106,0,1,1,-2.736595126239264e-15,14.897330006467106Z" fill="rgb(254, 232, 154)" stroke="none"/></g><g transform="translate(456.4723484648061,403.3872492151145)" id="El Nido"><path id="p_875.7569276863877" d="M-2.736595126239264e-15,14.897330006467106A14.897330006467106,14.897330006467106,0,1,1,2.736595126239264e-15,-14.897330006467106A14.897330006467106,14.897330006467106,0,1,1,-2.736595126239264e-15,14.897330006467106Z" fill="rgb(254, 232, 154)" stroke="none"/></g><g transform="translate(456.4723484648061,460.72945492501503)" id="Coron"><path id="p_933.0991333962883" d="M-2.736595126239264e-15,14.897330006467106A14.897330006467106,14.897330006467106,0,1,1,2.736595126239264e-15,-14.897330006467106A14.897330006467106,14.897330006467106,0,1,1,-2.736595126239264e-15,14.897330006467106Z" fill="rgb(254, 232, 154)" stroke="none"/></g></g><g id="labels"><g transform="translate(184.37165769519117,297.60023668693384)"><text text-anchor="middle" dominant-baseline="text-before-edge" transform="translate(0,0)" style="opacity: 1;"/></g><g transform="translate(248.1661721190606,297.60023668693384)"><text text-anchor="middle" dominant-baseline="text-before-edge" transform="translate(0,0)" style="opacity: 1;"/></g><g transform="translate(230.20277123679395,332.52896084119186)"><text text-anchor="middle" dominant-baseline="text-before-edge" transform="translate(0,0)" style="opacity: 1;"/></g><g transform="translate(230.20277123679395,262.6715125326758)"><text text-anchor="middle" dominant-baseline="text-before-edge" transform="translate(0,0)" style="opacity: 1;"/></g><g transform="translate(203.41700715690698,243.21474778236797)"><text text-anchor="middle" dominant-baseline="text-before-edge" transform="translate(0,0)" style="opacity: 1;"/></g><g transform="translate(316.2578098302548,300.61133903404095)"><text text-anchor="middle" dominant-baseline="text-before-edge" transform="translate(0,0)" style="opacity: 1;"/></g><g transform="translate(349.3643477327928,300.61133903404095)"><text text-anchor="middle" dominant-baseline="text-before-edge" transform="translate(0,0)" style="opacity: 1;"/></g><g transform="translate(332.8110787815238,329.28244188899123)"><text text-anchor="middle" dominant-baseline="text-before-edge" transform="translate(0,0)" style="opacity: 1;"/></g><g transform="translate(332.8110787815238,271.9402361790907)"><text text-anchor="middle" dominant-baseline="text-before-edge" transform="translate(0,0)" style="opacity: 1;"/></g><g transform="translate(299.7045408789858,271.9402361790907)"><text text-anchor="middle" dominant-baseline="text-before-edge" transform="translate(0,0)" style="opacity: 1;"/></g><g transform="translate(365.9176166840618,271.9402361790907)"><text text-anchor="middle" dominant-baseline="text-before-edge" transform="translate(0,0)" style="opacity: 1;"/></g><g transform="translate(261.91762170323295,382.7985220404778)"><text text-anchor="middle" dominant-baseline="text-before-edge" transform="translate(0,0)" style="opacity: 1;"/></g><g transform="translate(295.02415960577093,382.7985220404778)"><text text-anchor="middle" dominant-baseline="text-before-edge" transform="translate(0,0)" style="opacity: 1;"/></g><g transform="translate(278.47089065450194,411.46962489542807)"><text text-anchor="middle" dominant-baseline="text-before-edge" transform="translate(0,0)" style="opacity: 1;"/></g><g transform="translate(278.47089065450194,354.1274191855275)"><text text-anchor="middle" dominant-baseline="text-before-edge" transform="translate(0,0)" style="opacity: 1;"/></g><g transform="translate(277.0971622291787,221.82442742852996)"><text text-anchor="middle" dominant-baseline="text-before-edge" transform="translate(0,0)" style="opacity: 1;"/></g><g transform="translate(199.5778318158594,181.02239739801024)"><text text-anchor="middle" dominant-baseline="text-before-edge" transform="translate(0,0)" style="opacity: 1;"/></g><g transform="translate(238.85504585022375,181.02239739801024)"><text text-anchor="middle" dominant-baseline="text-before-edge" transform="translate(0,0)" style="opacity: 1;"/></g><g transform="translate(322.88919770141706,196.77553678471617)"><text text-anchor="middle" dominant-baseline="text-before-edge" transform="translate(0,0)" style="opacity: 1;"/></g><g transform="translate(355.99573560395504,196.77553678471617)"><text text-anchor="middle" dominant-baseline="text-before-edge" transform="translate(0,0)" style="opacity: 1;"/></g><g transform="translate(210.19314292130642,378.6875352182637)"><text text-anchor="middle" dominant-baseline="text-before-edge" transform="translate(0,0)" style="opacity: 1;"/></g><g transform="translate(345.2551946186177,368.0131308654396)"><text text-anchor="middle" dominant-baseline="text-before-edge" transform="translate(0,0)" style="opacity: 1;"/></g><g transform="translate(465.8166229105918,281)"><text text-anchor="middle" dominant-baseline="text-before-edge" transform="translate(0,0)" style="opacity: 1;"/></g><g transform="translate(505.09383694495614,281)"><text text-anchor="middle" dominant-baseline="text-before-edge" transform="translate(0,0)" style="opacity: 1;"/></g><g transform="translate(491.1411817116542,311.02276242841083)"><text text-anchor="middle" dominant-baseline="text-before-edge" transform="translate(0,0)" style="opacity: 1;"/></g><g transform="translate(491.1411817116542,250.97723757158917)"><text text-anchor="middle" dominant-baseline="text-before-edge" transform="translate(0,0)" style="opacity: 1;"/></g><g transform="translate(459.1961689971136,242.28476873011374)"><text text-anchor="middle" dominant-baseline="text-before-edge" transform="translate(0,0)" style="opacity: 1;"/></g><g transform="translate(459.1961689971136,319.71523126988626)"><text text-anchor="middle" dominant-baseline="text-before-edge" transform="translate(0,0)" style="opacity: 1;"/></g><g transform="translate(524.117984283094,253.90526490350925)"><text text-anchor="middle" dominant-baseline="text-before-edge" transform="translate(0,0)" style="opacity: 1;"/></g><g transform="translate(605.5604984221836,281)"><text text-anchor="middle" dominant-baseline="text-before-edge" transform="translate(0,0)" style="opacity: 1;"/></g><g transform="translate(638.6670363247216,281)"><text text-anchor="middle" dominant-baseline="text-before-edge" transform="translate(0,0)" style="opacity: 1;"/></g><g transform="translate(622.1137673734527,309.6711028549503)"><text text-anchor="middle" dominant-baseline="text-before-edge" transform="translate(0,0)" style="opacity: 1;"/></g><g transform="translate(622.1137673734527,252.32889714504972)"><text text-anchor="middle" dominant-baseline="text-before-edge" transform="translate(0,0)" style="opacity: 1;"/></g><g transform="translate(589.0072294709146,252.32889714504972)"><text text-anchor="middle" dominant-baseline="text-before-edge" transform="translate(0,0)" style="opacity: 1;"/></g><g transform="translate(554.8855061644927,333.3187270001884)"><text text-anchor="middle" dominant-baseline="text-before-edge" transform="translate(0,0)" style="opacity: 1;"/></g><g transform="translate(554.8855061644927,228.6812729998116)"><text text-anchor="middle" dominant-baseline="text-before-edge" transform="translate(0,0)" style="opacity: 1;"/></g><g transform="translate(524.2854294007226,203.34095851697367)"><text text-anchor="middle" dominant-baseline="text-before-edge" transform="translate(0,0)" style="opacity: 1;"/></g><g transform="translate(524.2854294007226,358.65904148302633)"><text text-anchor="middle" dominant-baseline="text-before-edge" transform="translate(0,0)" style="opacity: 1;"/></g><g transform="translate(406.8125416109991,432.05835207006476)"><text text-anchor="middle" dominant-baseline="text-before-edge" transform="translate(0,0)" style="opacity: 1;"/></g><g transform="translate(439.9190795135371,432.05835207006476)"><text text-anchor="middle" dominant-baseline="text-before-edge" transform="translate(0,0)" style="opacity: 1;"/></g><g transform="translate(423.3658105622681,460.72945492501503)"><text text-anchor="middle" dominant-baseline="text-before-edge" transform="translate(0,0)" style="opacity: 1;"/></g><g transform="translate(423.3658105622681,403.3872492151145)"><text text-anchor="middle" dominant-baseline="text-before-edge" transform="translate(0,0)" style="opacity: 1;"/></g><g transform="translate(390.25927265973013,403.3872492151145)"><text text-anchor="middle" dominant-baseline="text-before-edge" transform="translate(0,0)" style="opacity: 1;"/></g><g transform="translate(456.4723484648061,403.3872492151145)"><text text-anchor="middle" dominant-baseline="text-before-edge" transform="translate(0,0)" style="opacity: 1;"/></g><g transform="translate(456.4723484648061,460.72945492501503)"><text text-anchor="middle" dominant-baseline="text-before-edge" transform="translate(0,0)" style="opacity: 1;"/></g></g></g><g id="legend" transform="translate(805,20)"><g transform="translate(5,0)"><g class="legendSize" transform="translate(0,0)"><g class="legendCells" transform="translate(39,16)"><g class="cell" transform="translate(0, 15)"><circle class="swatch" r="15" fill="none" stroke="#ccc"/><text class="label" transform="translate( 44,&#10;          5)" font-family="&quot;Arial&quot;, sans-serif" font-size="10px"><tspan x="0" dy="0em">1.0</tspan></text></g><g class="cell" transform="translate(0, 84.41463039597221)"><circle class="swatch" r="39" fill="none" stroke="#ccc"/><text class="label" transform="translate( 44,&#10;          5)" font-family="&quot;Arial&quot;, sans-serif" font-size="10px"><tspan x="0" dy="0em">7.0</tspan></text></g></g><text class="legendTitle" font-family="&quot;Arial&quot;, sans-serif" font-size="12px" font-weight="bold"><tspan x="0" dy="0em"># [sum]</tspan></text></g><g class="legendColor" transform="translate(0,172.21463012695312)"><g class="legendCells" transform="translate(0,16)"><g class="cell" transform="translate(0, 0)"><rect class="swatch" height="15" width="15" style="fill: rgb(158, 1, 66);"/><text class="label" transform="translate( 20, 12.5)" font-family="&quot;Arial&quot;, sans-serif" font-size="10px"><tspan x="0" dy="0em">Bahamas</tspan></text></g><g class="cell" transform="translate(0, 21)"><rect class="swatch" height="15" width="15" style="fill: rgb(196, 44, 74);"/><text class="label" transform="translate( 20, 12.5)" font-family="&quot;Arial&quot;, sans-serif" font-size="10px"><tspan x="0" dy="0em">Brasil</tspan></text></g><g class="cell" transform="translate(0, 42)"><rect class="swatch" height="15" width="15" style="fill: rgb(225, 82, 74);"/><text class="label" transform="translate( 20, 12.5)" font-family="&quot;Arial&quot;, sans-serif" font-size="10px"><tspan x="0" dy="0em">Chile</tspan></text></g><g class="cell" transform="translate(0, 63)"><rect class="swatch" height="15" width="15" style="fill: rgb(243, 120, 76);"/><text class="label" transform="translate( 20, 12.5)" font-family="&quot;Arial&quot;, sans-serif" font-size="10px"><tspan x="0" dy="0em">Costa Rica</tspan></text></g><g class="cell" transform="translate(0, 84)"><rect class="swatch" height="15" width="15" style="fill: rgb(251, 163, 94);"/><text class="label" transform="translate( 20, 12.5)" font-family="&quot;Arial&quot;, sans-serif" font-size="10px"><tspan x="0" dy="0em">Cuba</tspan></text></g><g class="cell" transform="translate(0, 105)"><rect class="swatch" height="15" width="15" style="fill: rgb(253, 202, 121);"/><text class="label" transform="translate( 20, 12.5)" font-family="&quot;Arial&quot;, sans-serif" font-size="10px"><tspan x="0" dy="0em">Estados Unidos</tspan></text></g><g class="cell" transform="translate(0, 126)"><rect class="swatch" height="15" width="15" style="fill: rgb(254, 232, 154);"/><text class="label" transform="translate( 20, 12.5)" font-family="&quot;Arial&quot;, sans-serif" font-size="10px"><tspan x="0" dy="0em">Filipinas</tspan></text></g><g class="cell" transform="translate(0, 147)"><rect class="swatch" height="15" width="15" style="fill: rgb(251, 248, 176);"/><text class="label" transform="translate( 20, 12.5)" font-family="&quot;Arial&quot;, sans-serif" font-size="10px"><tspan x="0" dy="0em">Francia</tspan></text></g><g class="cell" transform="translate(0, 168)"><rect class="swatch" height="15" width="15" style="fill: rgb(235, 247, 166);"/><text class="label" transform="translate( 20, 12.5)" font-family="&quot;Arial&quot;, sans-serif" font-size="10px"><tspan x="0" dy="0em">Grecia</tspan></text></g><g class="cell" transform="translate(0, 189)"><rect class="swatch" height="15" width="15" style="fill: rgb(204, 234, 159);"/><text class="label" transform="translate( 20, 12.5)" font-family="&quot;Arial&quot;, sans-serif" font-size="10px"><tspan x="0" dy="0em">Inglaterra</tspan></text></g><g class="cell" transform="translate(0, 210)"><rect class="swatch" height="15" width="15" style="fill: rgb(160, 217, 163);"/><text class="label" transform="translate( 20, 12.5)" font-family="&quot;Arial&quot;, sans-serif" font-size="10px"><tspan x="0" dy="0em">Italia</tspan></text></g><g class="cell" transform="translate(0, 231)"><rect class="swatch" height="15" width="15" style="fill: rgb(114, 195, 167);"/><text class="label" transform="translate( 20, 12.5)" font-family="&quot;Arial&quot;, sans-serif" font-size="10px"><tspan x="0" dy="0em">Mexico</tspan></text></g><g class="cell" transform="translate(0, 252)"><rect class="swatch" height="15" width="15" style="fill: rgb(75, 160, 177);"/><text class="label" transform="translate( 20, 12.5)" font-family="&quot;Arial&quot;, sans-serif" font-size="10px"><tspan x="0" dy="0em">Republica Dominicana</tspan></text></g><g class="cell" transform="translate(0, 273)"><rect class="swatch" height="15" width="15" style="fill: rgb(68, 120, 178);"/><text class="label" transform="translate( 20, 12.5)" font-family="&quot;Arial&quot;, sans-serif" font-size="10px"><tspan x="0" dy="0em">Suiza</tspan></text></g><g class="cell" transform="translate(0, 294)"><rect class="swatch" height="15" width="15" style="fill: rgb(94, 79, 162);"/><text class="label" transform="translate( 20, 12.5)" font-family="&quot;Arial&quot;, sans-serif" font-size="10px"><tspan x="0" dy="0em">Turquia</tspan></text></g></g><text class="legendTitle" font-family="&quot;Arial&quot;, sans-serif" font-size="12px" font-weight="bold"><tspan x="0" dy="0em">Pais [csvDistinct]</tspan></text></g></g></g></svg>